<svg xmlns="http://www.w3.org/2000/svg" width="25" height="25" viewBox="0 0 25 25"><defs><style>.a{fill:none;}</style></defs><path d="M12.5,4.136V1L8.25,5.182,12.5,9.364V6.227A6.329,6.329,0,0,1,18.875,12.5a6.059,6.059,0,0,1-.744,2.927l1.551,1.526A8.2,8.2,0,0,0,21,12.5,8.43,8.43,0,0,0,12.5,4.136Zm0,14.636A6.329,6.329,0,0,1,6.125,12.5a6.059,6.059,0,0,1,.744-2.927L5.317,8.046A8.2,8.2,0,0,0,4,12.5a8.43,8.43,0,0,0,8.5,8.364V24l4.25-4.182L12.5,15.636Z" transform="translate(0 0)"/><path class="a" d="M0,0H25V25H0Z"/></svg>