<svg width="48" height="48" viewBox="0 0 48 48" fill="none" xmlns="http://www.w3.org/2000/svg">
<path d="M12 0C10.35 0 9 1.35 9 3V45C9 46.65 10.35 48 12 48H42C43.65 48 45 46.65 45 45V12L33 0H12Z" fill="#E2E5E7"/>
<path d="M36 12H45L33 0V9C33 10.65 34.35 12 36 12Z" fill="#B0B7BD"/>
<path d="M45 21L36 12H45V21Z" fill="#CAD1D8"/>
<path d="M39 39C39 39.825 38.325 40.5 37.5 40.5H4.5C3.675 40.5 3 39.825 3 39V24C3 23.175 3.675 22.5 4.5 22.5H37.5C38.325 22.5 39 23.175 39 24V39Z" fill="#50BEE8"/>
<path d="M8.68066 36.0012C8.28466 36.0012 7.85266 35.7837 7.85266 35.2572V28.4457C7.85266 28.0137 8.28466 27.7017 8.68066 27.7017H11.4272C16.9082 27.7017 16.7867 36.0012 11.5337 36.0012H8.68066ZM9.43666 29.1642V34.5372H11.4272C14.6657 34.5372 14.8082 29.1642 11.4272 29.1642H9.43666Z" fill="white"/>
<path d="M21.377 36.1204C19.1585 36.2164 16.8545 34.7404 16.8545 31.8019C16.8545 28.8514 19.157 27.4009 21.377 27.4009C23.4755 27.5074 25.67 28.9594 25.67 31.8019C25.67 34.6459 23.4755 36.1204 21.377 36.1204ZM21.245 28.9609C19.901 28.9609 18.4385 29.9089 18.4385 31.8034C18.4385 33.6874 19.9025 34.6474 21.245 34.6474C22.625 34.6474 24.0995 33.6874 24.0995 31.8034C24.0995 29.9074 22.625 28.9609 21.245 28.9609Z" fill="white"/>
<path d="M27.0798 31.7894C27.0798 29.4749 28.5318 27.4844 31.2903 27.4844C32.3343 27.4844 33.1623 27.7964 34.0368 28.5524C34.3608 28.8509 34.3968 29.3789 34.0728 29.7149C33.7488 30.0014 33.2568 29.9669 32.9688 29.6789C32.4783 29.1629 31.9743 29.0204 31.2903 29.0204C29.4438 29.0204 28.5573 30.3284 28.5573 31.7909C28.5573 33.2789 29.4318 34.6454 31.2903 34.6454C31.9743 34.6454 32.6103 34.3679 33.1623 33.8774C33.5328 33.5894 34.0488 33.7319 34.2648 34.0214C34.4568 34.2854 34.5513 34.7294 34.1328 35.1479C33.2928 35.9294 32.2863 36.0854 31.2888 36.0854C28.3878 36.0854 27.0798 34.1039 27.0798 31.7894Z" fill="white"/>
<path d="M37.5 40.5H9V42H37.5C38.325 42 39 41.325 39 40.5V39C39 39.825 38.325 40.5 37.5 40.5Z" fill="#CAD1D8"/>
<path d="M12 0C10.35 0 9 1.35 9 3V45C9 46.65 10.35 48 12 48H42C43.65 48 45 46.65 45 45V12L33 0H12Z" fill="#E2E5E7"/>
<path d="M36 12H45L33 0V9C33 10.65 34.35 12 36 12Z" fill="#B0B7BD"/>
<path d="M45 21L36 12H45V21Z" fill="#CAD1D8"/>
<path d="M39 39C39 39.825 38.325 40.5 37.5 40.5H4.5C3.675 40.5 3 39.825 3 39V24C3 23.175 3.675 22.5 4.5 22.5H37.5C38.325 22.5 39 23.175 39 24V39Z" fill="#84BD5A"/>
<path d="M18.3259 29.5014C18.6019 27.1734 22.1149 26.7549 23.7709 28.0269C24.5869 28.6854 23.7229 29.7294 23.0029 29.2014C22.1149 28.6389 20.1004 28.3749 19.8484 29.6199C19.5244 31.5879 24.7414 30.4614 24.6574 33.6519C24.5734 36.6984 20.1604 36.7689 18.5044 35.4024C18.1069 35.0784 18.1204 34.5519 18.3364 34.2264C18.6484 33.9159 18.9949 33.8079 19.4044 34.1439C20.3869 34.8144 22.9189 35.3184 23.0974 33.6144C22.9429 31.8414 17.9539 32.9079 18.3259 29.5014Z" fill="white"/>
<path d="M37.5 40.5H9V42H37.5C38.325 42 39 41.325 39 40.5V39C39 39.825 38.325 40.5 37.5 40.5Z" fill="#CAD1D8"/>
<path d="M9.84375 31.7894C9.84375 29.4749 11.2957 27.4844 14.0542 27.4844C15.0967 27.4844 15.9248 27.7964 16.8008 28.5524C17.1248 28.8509 17.1593 29.3804 16.8353 29.7149C16.5113 30.0014 16.0208 29.9669 15.7328 29.6789C15.2408 29.1629 14.7368 29.0204 14.0542 29.0204C12.2077 29.0204 11.3197 30.3284 11.3197 31.7909C11.3197 33.2789 12.1957 34.6454 14.0542 34.6454C14.7368 34.6454 15.3727 34.3694 15.9247 33.8774C16.2967 33.5909 16.8128 33.7334 17.0273 34.0214C17.2193 34.2854 17.3153 34.7294 16.8953 35.1494C16.0553 35.9294 15.0488 36.0854 14.0528 36.0854C11.1518 36.0854 9.84375 34.1054 9.84375 31.7894Z" fill="white"/>
<path d="M28.3849 35.4615L25.2184 28.8285C24.7504 27.8805 26.1664 27.102 26.6929 28.0965L27.7609 30.507L29.1394 33.6735L30.4939 30.507L31.5619 28.0965C32.0419 27.186 33.4324 27.7605 33.0259 28.7565L29.9674 35.4615C29.6914 36.2175 28.8409 36.396 28.3849 35.4615Z" fill="white"/>
</svg>
