<svg xmlns="http://www.w3.org/2000/svg" width="25" height="25.447" viewBox="0 0 25 25.447"><defs><style>.a{fill:#fff;}</style></defs><g transform="translate(-4.5)"><g transform="translate(4.5)"><path class="a" d="M218.477,46.515a.744.744,0,0,1-.58-.2c-.055-.062-.1-.12-.151-.169-.378-.4-1.03.155-.635.672l.1.123a1.426,1.426,0,0,0,.334.27,1.615,1.615,0,0,0,.523.214V48.1a.429.429,0,0,0,.427.429.437.437,0,0,0,.436-.429v-.687a1.556,1.556,0,0,0,.791-.451,1.26,1.26,0,0,0,.327-.908,1.274,1.274,0,0,0-.149-.644.845.845,0,0,0-.366-.359,3.405,3.405,0,0,0-.48-.178,3.62,3.62,0,0,0-.479-.109.894.894,0,0,1-.366-.13.3.3,0,0,1-.149-.259c0-.509.746-.446,1.074-.17.485.408,1.027-.339.465-.76l-.065-.058a1.422,1.422,0,0,0-.233-.131,1.621,1.621,0,0,0-.37-.123v-.593a.428.428,0,1,0-.856,0v.586a1.251,1.251,0,0,0-1.031,1.234,1.207,1.207,0,0,0,.2.72,1.105,1.105,0,0,0,.494.4,4.074,4.074,0,0,0,.58.185,2.992,2.992,0,0,1,.494.158c.135.058.2.14.2.246Q219.014,46.515,218.477,46.515Z" transform="translate(-206.388 -40.075)"/><path class="a" d="M29.2,178.053l-4.084-5.1A1.48,1.48,0,0,0,23.1,172.7l-2.673,1.985a1.367,1.367,0,0,0-.562,1.094,4.84,4.84,0,0,0-3.093.648l-.046.029-2.585-.385a1.371,1.371,0,0,0-.559-1.19L10.9,172.9a1.478,1.478,0,0,0-2.019.253l-.974,1.215a.48.48,0,0,0,.087.685.51.51,0,0,0,.7-.084l.973-1.215a.46.46,0,0,1,.621-.078l2.674,1.984a.407.407,0,0,1,.163.275.4.4,0,0,1-.086.307l-4.085,5.1a.461.461,0,0,1-.62.079L5.67,179.43a.408.408,0,0,1-.164-.276.4.4,0,0,1,.086-.306l.694-.867A.48.48,0,0,0,6.2,177.3a.51.51,0,0,0-.7.084l-.694.866a1.352,1.352,0,0,0-.291,1.031,1.373,1.373,0,0,0,.55.928l2.674,1.986a1.465,1.465,0,0,0,.873.285,1.5,1.5,0,0,0,.518-.093l.346.462a1.3,1.3,0,0,0-.066,1.123,1.455,1.455,0,0,0,1.277.948,1.374,1.374,0,0,0,.073.236,1.482,1.482,0,0,0,1.275.926c0,.014,0,.028.007.042a1.469,1.469,0,0,0,.986,1.069,1.371,1.371,0,0,0,.379.065,1.26,1.26,0,0,0,.3.557,1.338,1.338,0,0,0,.981.429,1.488,1.488,0,0,0,.867-.293l.568.517a1.506,1.506,0,0,0,1.013.394,1.431,1.431,0,0,0,1-.4,1.657,1.657,0,0,0,.375-.553,1.445,1.445,0,0,0,.41.061,1.314,1.314,0,0,0,.935-.389,1.492,1.492,0,0,0,.391-.724l.061,0h.015a1.5,1.5,0,0,0,1.043-.411,1.38,1.38,0,0,0,.378-.654,1.54,1.54,0,0,0,.287.028,1.482,1.482,0,0,0,.359-.044,1.325,1.325,0,0,0,.974-.96,1.563,1.563,0,0,0-.307-1.311,5.35,5.35,0,0,0,1.465-1.489,1.473,1.473,0,0,0,.861.273h0a1.452,1.452,0,0,0,.874-.287l2.674-1.984a1.372,1.372,0,0,0,.55-.926A1.355,1.355,0,0,0,29.2,178.053Zm-18.252,5.788a.345.345,0,0,1-.221.1.478.478,0,0,1-.381-.319.331.331,0,0,1,.088-.4h0l1.689-1.462a.657.657,0,0,1,.411-.187.421.421,0,0,1,.378.267.3.3,0,0,1-.1.364l-.294.259h0l0,0-.032.028Zm1.365,1.167a.341.341,0,0,1-.222.1.5.5,0,0,1-.4-.317.252.252,0,0,1,.046-.315c.02-.018.043-.04.068-.066h0l.005,0,1.351-1.188.03-.027a.645.645,0,0,1,.4-.18.446.446,0,0,1,.4.286.294.294,0,0,1-.094.356l-.1.089,0,0h0Zm1.494,1.054-.02.019-.118.1a.317.317,0,0,1-.329.079.487.487,0,0,1-.316-.338.367.367,0,0,1,.159-.361l.167-.142.012-.011,1.1-.939c.263-.226.523-.249.7-.06a.326.326,0,0,1-.021.487l-.673.591-.022.018-.007.007-.616.541Zm.649,1.1a.236.236,0,0,1,.012-.362l.671-.59a.785.785,0,0,1,.146-.1l.006,0a.329.329,0,0,1,.456.077.231.231,0,0,1-.042.337l-.46.4-.005,0-.2.175C14.712,187.388,14.509,187.218,14.455,187.159Zm7.943-2.579a.33.33,0,0,1-.249.245.823.823,0,0,1-.722-.306c-.018-.02-.037-.039-.057-.058l-1.892-1.822a.511.511,0,0,0-.709,0,.479.479,0,0,0,0,.691l1.889,1.819.009.01a.4.4,0,0,1,.118.286.418.418,0,0,1-.127.3.477.477,0,0,1-.333.124h-.005a.452.452,0,0,1-.3-.1,1.223,1.223,0,0,0-.1-.115l-1.383-1.349a.511.511,0,0,0-.709,0,.479.479,0,0,0,0,.691l1.312,1.279a.491.491,0,0,0,.054.065l.056.056a.46.46,0,0,1-.11.5c-.212.213-.511.025-.724-.17l-.592-.543a.511.511,0,0,0-.708.021.48.48,0,0,0,.021.69l.452.415,0,0a.084.084,0,0,1,.027.073.592.592,0,0,1-.189.382.457.457,0,0,1-.624-.013l-.5-.452.061-.053a1.183,1.183,0,0,0,.193-1.624,1.318,1.318,0,0,0-.45-.4,1.269,1.269,0,0,0-.218-1.465,1.4,1.4,0,0,0-.885-.443,1.31,1.31,0,0,0-.085-.368,1.447,1.447,0,0,0-.994-.874,1.274,1.274,0,0,0-.086-.591,1.422,1.422,0,0,0-1.313-.893,1.647,1.647,0,0,0-1.077.433l-1.28,1.108-.281-.375L13.713,177l1.744.26-.264.167c-1.414.893-1.517,1.933-1.142,2.607a1.731,1.731,0,0,0,1.533.849,1.986,1.986,0,0,0,.785-.162l.02-.009,1.321-.638.763.677,0,0,0,0L22,183.8A.871.871,0,0,1,22.4,184.579Zm-.042-1.778-3.209-2.78-1.014-.9a.511.511,0,0,0-.56-.076l-1.617.781a.812.812,0,0,1-1.022-.261c-.206-.372.1-.879.806-1.323l1.575-1a4.269,4.269,0,0,1,2.975-.444l3.548,4.429A4.387,4.387,0,0,1,22.355,182.8Zm6.139-3.841a.407.407,0,0,1-.163.275l-2.675,1.984a.442.442,0,0,1-.266.087h0a.45.45,0,0,1-.354-.165l-4.083-5.1a.4.4,0,0,1-.086-.305.408.408,0,0,1,.164-.276l2.672-1.984a.459.459,0,0,1,.621.079l4.084,5.1A.4.4,0,0,1,28.494,178.961Z" transform="translate(-4.5 -163.411)"/><path class="a" d="M142.489,9.92A5.276,5.276,0,1,0,147.245.5a5.217,5.217,0,0,0-2.251-.5,5.278,5.278,0,0,0-2.5,9.92Zm2.5-8.943a4.249,4.249,0,0,1,1.833.411,4.294,4.294,0,1,1-1.833-.411Z" transform="translate(-132.871)"/><path class="a" d="M46.9,240.681a.488.488,0,0,0,.686-.077l.006-.007a.488.488,0,1,0-.763-.609l-.006.007A.488.488,0,0,0,46.9,240.681Z" transform="translate(-44.669 -227.873)"/></g></g></svg>