<svg width="15" height="14" viewBox="0 0 15 14" fill="none" xmlns="http://www.w3.org/2000/svg">
<path d="M14.0265 10.1888V13.2936C14.0265 13.3554 14.0177 13.4128 14.0044 13.4658C13.9426 13.7706 13.6732 14.0002 13.3552 14.0002H0.666877C0.326814 14.0002 0.044164 13.7396 0.00883281 13.4084C0 13.3687 0 13.3333 0 13.2892V10.1844C0 9.81787 0.300315 9.52197 0.662461 9.52197C0.843533 9.52197 1.01136 9.59705 1.1306 9.71629C1.24984 9.83554 1.32492 10.0034 1.32492 10.1844V12.6709H12.706V10.1844C12.706 9.81787 13.0063 9.52197 13.3685 9.52197C13.5495 9.52197 13.7174 9.59705 13.8366 9.71629C13.9514 9.83995 14.0265 10.0078 14.0265 10.1888Z" fill="#808080"/>
<path d="M10.8334 7.0795L7.57848 10.3344C7.57406 10.3432 7.56523 10.3476 7.56081 10.3521C7.44157 10.4713 7.287 10.5464 7.13242 10.5685C7.11917 10.5685 7.10592 10.5729 7.09267 10.5729C7.06618 10.5773 7.03968 10.5773 7.01318 10.5773L6.9381 10.5729C6.92485 10.5729 6.9116 10.5685 6.89835 10.5685C6.73936 10.5464 6.5892 10.4713 6.46996 10.3521C6.46554 10.3476 6.45671 10.3388 6.4523 10.3344L3.1974 7.0795C3.04725 6.92934 2.97217 6.7306 2.97217 6.53186C2.97217 6.33312 3.04725 6.13439 3.1974 5.98423C3.49772 5.68391 3.98794 5.68391 4.29267 5.98423L6.24914 7.94069V0.772871C6.24914 0.348896 6.59804 0 7.02201 0C7.234 0 7.42832 0.0883281 7.56964 0.225237C7.71097 0.366562 7.79488 0.556467 7.79488 0.772871V7.94069L9.75135 5.98423C10.0517 5.68391 10.5419 5.68391 10.8466 5.98423C11.1337 6.28896 11.1337 6.77918 10.8334 7.0795Z" fill="#808080"/>
</svg>
