<svg xmlns="http://www.w3.org/2000/svg" width="16.081" height="16" viewBox="0 0 16.081 16"><g transform="translate(0 -0.261)"><path d="M14.765,47.568a.4.4,0,0,0-.4.4v3.52a1.194,1.194,0,0,1-1.2,1.189H1.992A1.194,1.194,0,0,1,.8,51.485V41.154a1.194,1.194,0,0,1,1.2-1.189H5.53a.4.4,0,1,0,0-.793H1.992A1.989,1.989,0,0,0,0,41.154V51.485a1.989,1.989,0,0,0,1.992,1.982H13.171a1.989,1.989,0,0,0,1.992-1.982v-3.52A.4.4,0,0,0,14.765,47.568Zm0,0" transform="translate(0 -37.206)"/><path d="M119.952.838a1.972,1.972,0,0,0-2.788,0l-7.817,7.817a.438.438,0,0,0-.112.193l-1.028,3.711a.438.438,0,0,0,.539.539l3.711-1.028a.438.438,0,0,0,.193-.112l7.817-7.817a1.974,1.974,0,0,0,0-2.789ZM110.3,8.94l6.4-6.4,2.063,2.063-6.4,6.4Zm-.412.827,1.648,1.649-2.28.632Zm9.958-6.246-.465.465-2.063-2.063.465-.465a1.1,1.1,0,0,1,1.549,0l.514.514A1.1,1.1,0,0,1,119.846,3.521Zm0,0" transform="translate(-104.962)"/></g></svg>