<svg width="16" height="16" viewBox="0 0 16 16" fill="none" xmlns="http://www.w3.org/2000/svg">
<path d="M9.79048 7.67495L4.25598 6.69995V13.9045C4.25605 13.9827 4.27153 14.0602 4.30154 14.1325C4.33155 14.2048 4.37551 14.2704 4.4309 14.3257C4.48629 14.381 4.55203 14.4249 4.62436 14.4548C4.6967 14.4847 4.77421 14.5 4.85248 14.4999H14.4025C14.4808 14.5001 14.5585 14.4849 14.6309 14.4551C14.7034 14.4252 14.7692 14.3814 14.8247 14.3261C14.8802 14.2708 14.9243 14.2051 14.9543 14.1327C14.9844 14.0604 14.9999 13.9828 15 13.9045V11.25L9.79048 7.67495Z" fill="#185C37"/>
<path d="M9.79048 1.5H4.85248C4.77421 1.49993 4.6967 1.51529 4.62436 1.54518C4.55203 1.57507 4.48629 1.61891 4.4309 1.67421C4.37551 1.72951 4.33155 1.79517 4.30154 1.86746C4.27153 1.93974 4.25605 2.01723 4.25598 2.0955V4.75L9.79048 8L12.721 8.975L15 8V4.75L9.79048 1.5Z" fill="#21A366"/>
<path d="M4.25598 4.75H9.79048V8H4.25598V4.75Z" fill="#107C41"/>
<path opacity="0.1" d="M8.21698 4.1001H4.25598V12.2251H8.21698C8.37481 12.2243 8.52598 12.1614 8.63773 12.0499C8.74948 11.9384 8.8128 11.7874 8.81398 11.6296V4.6956C8.8128 4.53777 8.74948 4.38676 8.63773 4.27529C8.52598 4.16383 8.37481 4.10088 8.21698 4.1001V4.1001Z" fill="black"/>
<path opacity="0.2" d="M7.89148 4.42505H4.25598V12.55H7.89148C8.04931 12.5493 8.20048 12.4863 8.31223 12.3749C8.42398 12.2634 8.4873 12.1124 8.48848 11.9545V5.02055C8.4873 4.86272 8.42398 4.71171 8.31223 4.60024C8.20048 4.48878 8.04931 4.42583 7.89148 4.42505V4.42505Z" fill="black"/>
<path opacity="0.2" d="M7.89148 4.42505H4.25598V11.9H7.89148C8.04931 11.8993 8.20048 11.8363 8.31223 11.7249C8.42398 11.6134 8.4873 11.4624 8.48848 11.3045V5.02055C8.4873 4.86272 8.42398 4.71171 8.31223 4.60024C8.20048 4.48878 8.04931 4.42583 7.89148 4.42505V4.42505Z" fill="black"/>
<path opacity="0.2" d="M7.56598 4.42505H4.25598V11.9H7.56598C7.72381 11.8993 7.87498 11.8363 7.98673 11.7249C8.09847 11.6134 8.1618 11.4624 8.16298 11.3045V5.02055C8.1618 4.86272 8.09847 4.71171 7.98673 4.60024C7.87498 4.48878 7.72381 4.42583 7.56598 4.42505V4.42505Z" fill="black"/>
<path d="M1.597 4.42505H7.566C7.72412 4.42492 7.87581 4.48757 7.98776 4.59923C8.0997 4.71089 8.16274 4.86243 8.163 5.02055V10.9795C8.16274 11.1377 8.0997 11.2892 7.98776 11.4009C7.87581 11.5125 7.72412 11.5752 7.566 11.575H1.597C1.51869 11.5752 1.44112 11.5599 1.36873 11.53C1.29634 11.5002 1.23054 11.4563 1.17509 11.401C1.11965 11.3457 1.07565 11.28 1.04561 11.2077C1.01556 11.1354 1.00007 11.0579 1 10.9795V5.02055C1.00007 4.94224 1.01556 4.86471 1.04561 4.79239C1.07565 4.72008 1.11965 4.65439 1.17509 4.59908C1.23054 4.54378 1.29634 4.49994 1.36873 4.47008C1.44112 4.44022 1.51869 4.42492 1.597 4.42505V4.42505Z" fill="url(#paint0_linear)"/>
<path d="M2.84998 9.93648L4.10548 7.99448L2.95548 6.06348H3.87898L4.50648 7.29998C4.56448 7.41698 4.60648 7.50398 4.62548 7.56198H4.63398C4.67498 7.46798 4.71848 7.37748 4.76398 7.28898L5.43498 6.06548H6.28498L5.10548 7.98548L6.31498 9.93798H5.41048L4.68548 8.58248C4.65181 8.5242 4.62321 8.46314 4.59998 8.39998H4.58798C4.56683 8.46152 4.53865 8.52041 4.50398 8.57548L3.75748 9.93648H2.84998Z" fill="white"/>
<path d="M14.403 1.5H9.79053V4.75H15V2.0955C15 2.01719 14.9845 1.93966 14.9544 1.86734C14.9244 1.79503 14.8804 1.72934 14.8249 1.67403C14.7695 1.61873 14.7037 1.5749 14.6313 1.54503C14.5589 1.51517 14.4813 1.49987 14.403 1.5V1.5Z" fill="#33C481"/>
<path d="M9.79053 8H15V11.25H9.79053V8Z" fill="#107C41"/>
<defs>
<linearGradient id="paint0_linear" x1="2.247" y1="3.95705" x2="6.916" y2="12.043" gradientUnits="userSpaceOnUse">
<stop stop-color="#18884F"/>
<stop offset="0.5" stop-color="#117E43"/>
<stop offset="1" stop-color="#0B6631"/>
</linearGradient>
</defs>
</svg>
