<svg xmlns="http://www.w3.org/2000/svg" width="20" height="17.16" viewBox="0 0 20 17.16"><defs><style>.a{fill:#3b3b3b;}</style></defs><path class="a" d="M19.864,42.087a18.964,18.964,0,0,0-4.32-4.114l2.819-2.819a.714.714,0,1,0-.992-1.028l-.018.018-3.079,3.076A9.237,9.237,0,0,0,10,36.078c-5.429,0-9.685,5.763-9.863,6.008a.714.714,0,0,0,0,.84,18.964,18.964,0,0,0,4.32,4.114L1.638,49.859a.714.714,0,0,0,.992,1.028l.018-.018,3.079-3.076A9.237,9.237,0,0,0,10,48.935c5.429,0,9.685-5.763,9.863-6.009A.714.714,0,0,0,19.864,42.087ZM5.5,46a17.785,17.785,0,0,1-3.871-3.5c1.051-1.274,4.461-5,8.376-5a7.561,7.561,0,0,1,3.206.786l-1.24,1.24a3.566,3.566,0,0,0-4.943,4.943Zm6.434-4.415a2.108,2.108,0,0,1,.214.918A2.143,2.143,0,0,1,10,44.649a2.108,2.108,0,0,1-.918-.214ZM8.072,43.424a2.108,2.108,0,0,1-.214-.918A2.143,2.143,0,0,1,10,40.364a2.108,2.108,0,0,1,.918.214ZM10,47.506a7.561,7.561,0,0,1-3.206-.786l1.24-1.24a3.566,3.566,0,0,0,4.943-4.943l1.529-1.529a17.786,17.786,0,0,1,3.871,3.5C17.324,43.78,13.914,47.506,10,47.506Z" transform="translate(0 -33.926)"/></svg>