<svg xmlns="http://www.w3.org/2000/svg" width="20" height="12.747" viewBox="0 0 20 12.747"><g transform="translate(0 -92.835)"><g transform="translate(0 92.835)"><g transform="translate(0 0)"><path d="M19.873,98.82c-.179-.244-4.436-5.985-9.873-5.985S.305,98.575.127,98.819a.66.66,0,0,0,0,.778c.178.244,4.436,5.985,9.873,5.985s9.694-5.74,9.873-5.984A.659.659,0,0,0,19.873,98.82ZM10,104.264c-4.005,0-7.474-3.81-8.5-5.055,1.026-1.247,4.487-5.055,8.5-5.055s7.473,3.809,8.5,5.055C17.475,100.456,14.014,104.264,10,104.264Z" transform="translate(0 -92.835)"/></g></g><g transform="translate(6 95.209)"><g transform="translate(0 0)"><path d="M158.722,154.725a4,4,0,1,0,4,4A4,4,0,0,0,158.722,154.725Zm0,6.666a2.666,2.666,0,1,1,2.666-2.666A2.669,2.669,0,0,1,158.722,161.391Z" transform="translate(-154.722 -154.725)"/></g></g></g></svg>