<svg xmlns="http://www.w3.org/2000/svg" xmlns:xlink="http://www.w3.org/1999/xlink" viewBox="0 0 324.23 128.82"><defs><style>.cls-1{fill:none;}.cls-2{fill:#fff;}.cls-3{clip-path:url(#clip-path);}.cls-4{fill:#231f20;}.cls-5{fill:#242021;}.cls-6{fill:#252122;}.cls-7{fill:#262223;}.cls-8{fill:#272324;}.cls-9{fill:#282425;}.cls-10{fill:#292526;}.cls-11{fill:#2a2627;}.cls-12{fill:#2b2728;}.cls-13{fill:#2c2829;}.cls-14{fill:#2d292a;}.cls-15{fill:#2e2a2b;}.cls-16{fill:#2f2b2c;}.cls-17{fill:#302c2d;}.cls-18{fill:#312d2e;}.cls-19{fill:#322e2f;}.cls-20{fill:#332f30;}.cls-21{fill:#343031;}.cls-22{fill:#353132;}.cls-23{fill:#363233;}.cls-24{fill:#373334;}.cls-25{fill:#383435;}.cls-26{fill:#393536;}.cls-27{fill:#3a3637;}.cls-28{fill:#3b3738;}.cls-29{fill:#3c3839;}.cls-30{fill:#3d393a;}.cls-31{fill:#3e3a3b;}.cls-32{fill:#3f3b3c;}.cls-33{fill:#403c3d;}.cls-34{fill:#413d3e;}.cls-35{fill:#423e3f;}.cls-36{fill:#433f40;}.cls-37{fill:#444041;}.cls-38{fill:#454142;}.cls-39{fill:#464243;}.cls-40{fill:#474344;}.cls-41{fill:#484445;}.cls-42{fill:#484546;}.cls-43{fill:#494647;}.cls-44{fill:#4a4748;}.cls-45{fill:#4b4849;}.cls-46{fill:#4c494a;}.cls-47{fill:#4d4a4b;}.cls-48{fill:#4e4b4c;}.cls-49{fill:#4f4c4d;}.cls-50{fill:#504d4e;}.cls-51{fill:#514e4f;}.cls-52{fill:#524f50;}.cls-53{fill:#535051;}.cls-54{fill:#545152;}.cls-55{fill:#555253;}.cls-56{fill:#565354;}.cls-57{fill:#575455;}.cls-58{fill:#585556;}.cls-59{fill:#595657;}.cls-60{fill:#5a5758;}.cls-61{fill:#5b5859;}.cls-62{fill:#5c595a;}.cls-63{fill:#5d5a5b;}.cls-64{fill:#5e5b5c;}.cls-65{fill:#5f5c5d;}.cls-66{fill:#605d5e;}.cls-67{fill:#615e5f;}.cls-68{fill:#625f60;}.cls-69{fill:#636061;}.cls-70{fill:#646162;}.cls-71{fill:#656263;}.cls-72{fill:#666364;}.cls-73{fill:#676465;}.cls-74{fill:#686566;}.cls-75{fill:#696667;}.cls-76{fill:#6a6768;}.cls-77{fill:#6b6869;}.cls-78{fill:#6c696a;}.cls-79{fill:#6d6a6b;}.cls-80{fill:#6e6b6c;}.cls-81{fill:#6f6c6d;}.cls-82{fill:#706d6e;}.cls-83{fill:#716e6f;}.cls-84{fill:#726f70;}.cls-85{fill:#737071;}.cls-86{fill:#747172;}.cls-87{fill:#757273;}.cls-88{fill:#767374;}.cls-89{fill:#777475;}.cls-90{fill:#787576;}.cls-91{fill:#797677;}.cls-92{fill:#7a7778;}.cls-93{fill:#7b7879;}.cls-94{fill:#7c797a;}.cls-95{fill:#7d7a7b;}.cls-96{fill:#7e7b7c;}.cls-97{fill:#7f7c7d;}.cls-98{fill:#807d7e;}.cls-99{fill:#817e7f;}.cls-100{fill:#827f80;}.cls-101{fill:#838081;}.cls-102{fill:#848182;}.cls-103{fill:#858283;}.cls-104{fill:#868384;}.cls-105{fill:#878485;}.cls-106{fill:#888586;}.cls-107{fill:#898687;}.cls-108{fill:#8a8788;}.cls-109{fill:#8b8889;}.cls-110{fill:#8c898a;}.cls-111{fill:#8d8a8b;}.cls-112{fill:#8e8b8c;}.cls-113{fill:#8f8c8d;}.cls-114{fill:#908d8e;}.cls-115{fill:#918e8f;}.cls-116{fill:#919090;}.cls-117{fill:#929191;}.cls-118{fill:#939292;}.cls-119{fill:#949393;}.cls-120{fill:#959494;}.cls-121{fill:#969595;}.cls-122{fill:#979696;}.cls-123{fill:#989797;}.cls-124{fill:#999898;}.cls-125{fill:#9a9999;}.cls-126{fill:#9b9a9a;}.cls-127{fill:#9c9b9b;}.cls-128{fill:#9d9c9c;}.cls-129{fill:#9e9d9d;}.cls-130{fill:#9f9e9e;}.cls-131{fill:#a09f9f;}.cls-132{fill:#a1a0a0;}.cls-133{fill:#a2a1a1;}.cls-134{fill:#a3a2a2;}.cls-135{fill:#a4a3a3;}.cls-136{fill:#a5a4a4;}.cls-137{fill:#a6a5a5;}.cls-138{fill:#a7a6a6;}.cls-139{fill:#a8a7a7;}.cls-140{fill:#a9a8a8;}.cls-141{fill:#aaa9a9;}.cls-142{fill:#abaaaa;}.cls-143{fill:#acabab;}.cls-144{fill:#adacac;}.cls-145{fill:#aeadad;}.cls-146{fill:#afaeae;}.cls-147{fill:#b0afaf;}.cls-148{fill:#b1b0b0;}.cls-149{fill:#b2b1b1;}.cls-150{fill:#b3b2b2;}.cls-151{fill:#b4b3b3;}.cls-152{fill:#b5b4b4;}.cls-153{fill:#b6b5b5;}.cls-154{fill:#b7b6b6;}.cls-155{fill:#b8b7b7;}.cls-156{fill:#b9b8b8;}.cls-157{fill:#bab9b9;}.cls-158{fill:#bbbaba;}.cls-159{fill:#bcbbbb;}.cls-160{fill:#bdbcbc;}.cls-161{fill:#bebdbd;}.cls-162{fill:#bfbebe;}.cls-163{fill:#c0bfbf;}.cls-164{fill:#c1c0c0;}.cls-165{fill:#c2c1c1;}.cls-166{fill:#c3c2c2;}.cls-167{fill:#c4c3c3;}.cls-168{fill:#c5c4c4;}.cls-169{fill:#c6c5c5;}.cls-170{fill:#c7c6c6;}.cls-171{fill:#c8c7c7;}.cls-172{fill:#c9c8c8;}.cls-173{fill:#cac9c9;}.cls-174{fill:#cbcaca;}.cls-175{fill:#cccbcb;}.cls-176{fill:#cdcccc;}.cls-177{fill:#cecdcd;}.cls-178{fill:#cfcece;}.cls-179{fill:#d0cfcf;}.cls-180{fill:#d1d0d0;}.cls-181{fill:#d2d1d1;}.cls-182{fill:#d3d2d2;}.cls-183{fill:#d4d3d3;}.cls-184{fill:#d5d4d4;}.cls-185{fill:#d6d5d5;}.cls-186{fill:#d7d6d6;}.cls-187{fill:#d8d7d7;}.cls-188{fill:#d9d8d8;}.cls-189{fill:#dad9d9;}.cls-190{fill:#dadada;}.cls-191{fill:#dbdbdb;}.cls-192{fill:#dcdcdc;}.cls-193{fill:#ddd;}.cls-194{fill:#dedede;}.cls-195{fill:#dfdfdf;}.cls-196{fill:#e0e0e0;}.cls-197{fill:#e1e1e1;}.cls-198{fill:#e2e2e2;}.cls-199{fill:#e3e3e3;}.cls-200{fill:#e4e4e4;}.cls-201{fill:#e5e5e5;}.cls-202{fill:#e6e6e6;}.cls-203{fill:#e7e7e7;}.cls-204{fill:#e8e8e8;}.cls-205{fill:#e9e9e9;}.cls-206{fill:#eaeaea;}.cls-207{fill:#ebebeb;}.cls-208{fill:#ececec;}.cls-209{fill:#ededed;}.cls-210{fill:#eee;}.cls-211{fill:#efefef;}.cls-212{fill:#f0f0f0;}.cls-213{fill:#f1f1f1;}.cls-214{fill:#f2f2f2;}.cls-215{fill:#f3f3f3;}.cls-216{fill:#f4f4f4;}.cls-217{fill:#f5f5f5;}.cls-218{fill:#f6f6f6;}.cls-219{fill:#f7f7f7;}.cls-220{fill:#f8f8f8;}.cls-221{fill:#f9f9f9;}.cls-222{fill:#fafafa;}.cls-223{fill:#fbfbfb;}.cls-224{fill:#fcfcfc;}.cls-225{fill:#fdfdfd;}.cls-226{fill:#fefefe;}</style><clipPath id="clip-path"><polygon class="cls-1" points="9.36 76.19 48.85 36.7 75.57 36.7 22.35 90.2 9.36 76.19"/></clipPath></defs><title>Asset 21</title><g id="Layer_2" data-name="Layer 2"><g id="Layer_1-2" data-name="Layer 1"><path class="cls-2" d="M116.25,126.32H92.92V0h23.33Z"/><path class="cls-2" d="M161.75,101.32a12.59,12.59,0,0,0,1.67,6.83q1.67,2.67,6,2.67a11.7,11.7,0,0,0,3.16-.42,20.62,20.62,0,0,1,3.84-.58,5.7,5.7,0,0,1,3.58.83,16.36,16.36,0,0,1,3.08,2.59,22.29,22.29,0,0,1,2.75,3.58c.83,1.33,1.64,2.67,2.42,4a74.79,74.79,0,0,1-14.5,6,45.94,45.94,0,0,1-12,1.67,23,23,0,0,1-8.56-1.67,21.49,21.49,0,0,1-7.47-5,25.26,25.26,0,0,1-5.29-8.33,31.67,31.67,0,0,1-2-11.83V40.16h23.33Zm36.83,25a25.12,25.12,0,0,1-5.17-8.92,32.33,32.33,0,0,1-1.33-9.41V40.16h23.33v65.16a91.92,91.92,0,0,0,2.67,21Z"/><path class="cls-2" d="M284.57,55.49a8.81,8.81,0,0,1-4.83-.91,12.12,12.12,0,0,1-3.5-2.84,24.56,24.56,0,0,1-2.84-4.16q-1.33-2.41-2.5-4.92a53.61,53.61,0,0,1,9.75-3,47,47,0,0,1,9.25-1,28.12,28.12,0,0,1,14.33,3.67A35.43,35.43,0,0,1,315,51.91a46,46,0,0,1,6.83,13.33,48,48,0,0,1,2.42,14.92,56.59,56.59,0,0,1-3.17,19.08,45.17,45.17,0,0,1-9.16,15.5,42.59,42.59,0,0,1-14.5,10.33,46.59,46.59,0,0,1-19,3.75,76.5,76.5,0,0,1-17.83-2.08,82.43,82.43,0,0,1-18.83-7.42V0h23.33V110a47.66,47.66,0,0,0,7,1.33,61.79,61.79,0,0,0,6.46.33,16.59,16.59,0,0,0,8.71-2.33,20.43,20.43,0,0,0,6.63-6.5,31.39,31.39,0,0,0,4.15-10,53.77,53.77,0,0,0,1.41-12.66,50.39,50.39,0,0,0-.75-8.42,30.4,30.4,0,0,0-2.5-8.08,17.36,17.36,0,0,0-4.58-6A10,10,0,0,0,284.57,55.49Z"/><path class="cls-2" d="M23.33,126.32H0V0H23.33Z"/><g class="cls-3"><path class="cls-4" d="M9.36,36.7v0Z"/><rect class="cls-4" x="9.36" y="36.7" width="0.3" height="53.5"/><rect class="cls-5" x="9.66" y="36.7" width="0.3" height="53.5"/><rect class="cls-6" x="9.95" y="36.7" width="0.3" height="53.5"/><rect class="cls-7" x="10.25" y="36.7" width="0.3" height="53.5"/><rect class="cls-8" x="10.54" y="36.7" width="0.3" height="53.5"/><rect class="cls-9" x="10.84" y="36.7" width="0.3" height="53.5"/><rect class="cls-10" x="11.14" y="36.7" width="0.3" height="53.5"/><rect class="cls-11" x="11.43" y="36.7" width="0.3" height="53.5"/><rect class="cls-12" x="11.73" y="36.7" width="0.3" height="53.5"/><rect class="cls-13" x="12.02" y="36.7" width="0.3" height="53.5"/><rect class="cls-14" x="12.32" y="36.7" width="0.3" height="53.5"/><rect class="cls-15" x="12.61" y="36.7" width="0.3" height="53.5"/><rect class="cls-16" x="12.91" y="36.7" width="0.3" height="53.5"/><rect class="cls-17" x="13.21" y="36.7" width="0.3" height="53.5"/><rect class="cls-18" x="13.5" y="36.7" width="0.3" height="53.5"/><rect class="cls-19" x="13.8" y="36.7" width="0.3" height="53.5"/><rect class="cls-20" x="14.09" y="36.7" width="0.3" height="53.5"/><rect class="cls-21" x="14.39" y="36.7" width="0.3" height="53.5"/><rect class="cls-22" x="14.68" y="36.7" width="0.3" height="53.5"/><rect class="cls-23" x="14.98" y="36.7" width="0.3" height="53.5"/><rect class="cls-24" x="15.27" y="36.7" width="0.3" height="53.5"/><rect class="cls-25" x="15.57" y="36.7" width="0.3" height="53.5"/><rect class="cls-26" x="15.87" y="36.7" width="0.3" height="53.5"/><rect class="cls-27" x="16.16" y="36.7" width="0.3" height="53.5"/><rect class="cls-28" x="16.46" y="36.7" width="0.3" height="53.5"/><rect class="cls-29" x="16.75" y="36.7" width="0.3" height="53.5"/><rect class="cls-30" x="17.05" y="36.7" width="0.3" height="53.5"/><rect class="cls-31" x="17.34" y="36.7" width="0.3" height="53.5"/><rect class="cls-32" x="17.64" y="36.7" width="0.3" height="53.5"/><rect class="cls-33" x="17.93" y="36.7" width="0.3" height="53.5"/><rect class="cls-34" x="18.23" y="36.7" width="0.3" height="53.5"/><rect class="cls-35" x="18.53" y="36.7" width="0.3" height="53.5"/><rect class="cls-36" x="18.82" y="36.7" width="0.3" height="53.5"/><rect class="cls-37" x="19.12" y="36.7" width="0.3" height="53.5"/><rect class="cls-38" x="19.41" y="36.7" width="0.3" height="53.5"/><rect class="cls-39" x="19.71" y="36.7" width="0.3" height="53.5"/><rect class="cls-40" x="20" y="36.7" width="0.3" height="53.5"/><rect class="cls-41" x="20.3" y="36.7" width="0.3" height="53.5"/><rect class="cls-42" x="20.59" y="36.7" width="0.3" height="53.5"/><rect class="cls-43" x="20.89" y="36.7" width="0.3" height="53.5"/><rect class="cls-44" x="21.19" y="36.7" width="0.3" height="53.5"/><rect class="cls-45" x="21.48" y="36.7" width="0.3" height="53.5"/><rect class="cls-46" x="21.78" y="36.7" width="0.3" height="53.5"/><rect class="cls-47" x="22.07" y="36.7" width="0.3" height="53.5"/><rect class="cls-48" x="22.37" y="36.7" width="0.3" height="53.5"/><rect class="cls-49" x="22.66" y="36.7" width="0.3" height="53.5"/><rect class="cls-50" x="22.96" y="36.7" width="0.3" height="53.5"/><rect class="cls-51" x="23.25" y="36.7" width="0.3" height="53.5"/><rect class="cls-52" x="23.55" y="36.7" width="0.3" height="53.5"/><rect class="cls-53" x="23.85" y="36.7" width="0.3" height="53.5"/><rect class="cls-54" x="24.14" y="36.7" width="0.3" height="53.5"/><rect class="cls-55" x="24.44" y="36.7" width="0.3" height="53.5"/><rect class="cls-56" x="24.73" y="36.7" width="0.3" height="53.5"/><rect class="cls-57" x="25.03" y="36.7" width="0.3" height="53.5"/><rect class="cls-58" x="25.32" y="36.7" width="0.3" height="53.5"/><rect class="cls-59" x="25.62" y="36.7" width="0.3" height="53.5"/><rect class="cls-60" x="25.91" y="36.7" width="0.3" height="53.5"/><rect class="cls-61" x="26.21" y="36.7" width="0.3" height="53.5"/><rect class="cls-62" x="26.51" y="36.7" width="0.3" height="53.5"/><rect class="cls-63" x="26.8" y="36.7" width="0.3" height="53.5"/><rect class="cls-64" x="27.1" y="36.7" width="0.3" height="53.5"/><rect class="cls-65" x="27.39" y="36.7" width="0.3" height="53.5"/><rect class="cls-66" x="27.69" y="36.7" width="0.3" height="53.5"/><rect class="cls-67" x="27.98" y="36.7" width="0.3" height="53.5"/><rect class="cls-68" x="28.28" y="36.7" width="0.3" height="53.5"/><rect class="cls-69" x="28.57" y="36.7" width="0.3" height="53.5"/><rect class="cls-70" x="28.87" y="36.7" width="0.3" height="53.5"/><rect class="cls-71" x="29.17" y="36.7" width="0.3" height="53.5"/><rect class="cls-72" x="29.46" y="36.7" width="0.3" height="53.5"/><rect class="cls-73" x="29.76" y="36.7" width="0.3" height="53.5"/><rect class="cls-74" x="30.05" y="36.7" width="0.3" height="53.5"/><rect class="cls-75" x="30.35" y="36.7" width="0.3" height="53.5"/><rect class="cls-76" x="30.64" y="36.7" width="0.3" height="53.5"/><rect class="cls-77" x="30.94" y="36.7" width="0.3" height="53.5"/><rect class="cls-78" x="31.23" y="36.7" width="0.3" height="53.5"/><rect class="cls-79" x="31.53" y="36.7" width="0.3" height="53.5"/><rect class="cls-80" x="31.83" y="36.7" width="0.3" height="53.5"/><rect class="cls-81" x="32.12" y="36.7" width="0.3" height="53.5"/><rect class="cls-82" x="32.42" y="36.7" width="0.3" height="53.5"/><rect class="cls-83" x="32.71" y="36.7" width="0.3" height="53.5"/><rect class="cls-84" x="33.01" y="36.7" width="0.3" height="53.5"/><rect class="cls-85" x="33.3" y="36.7" width="0.3" height="53.5"/><rect class="cls-86" x="33.6" y="36.7" width="0.3" height="53.5"/><rect class="cls-87" x="33.9" y="36.7" width="0.3" height="53.5"/><rect class="cls-88" x="34.19" y="36.7" width="0.3" height="53.5"/><rect class="cls-89" x="34.49" y="36.7" width="0.3" height="53.5"/><rect class="cls-90" x="34.78" y="36.7" width="0.3" height="53.5"/><rect class="cls-91" x="35.08" y="36.7" width="0.3" height="53.5"/><rect class="cls-92" x="35.37" y="36.7" width="0.3" height="53.5"/><rect class="cls-93" x="35.67" y="36.7" width="0.3" height="53.5"/><rect class="cls-94" x="35.96" y="36.7" width="0.3" height="53.5"/><rect class="cls-95" x="36.26" y="36.7" width="0.3" height="53.5"/><rect class="cls-96" x="36.56" y="36.7" width="0.3" height="53.5"/><rect class="cls-97" x="36.85" y="36.7" width="0.3" height="53.5"/><rect class="cls-98" x="37.15" y="36.7" width="0.3" height="53.5"/><rect class="cls-99" x="37.44" y="36.7" width="0.3" height="53.5"/><rect class="cls-100" x="37.74" y="36.7" width="0.3" height="53.5"/><rect class="cls-101" x="38.03" y="36.7" width="0.3" height="53.5"/><rect class="cls-102" x="38.33" y="36.7" width="0.3" height="53.5"/><rect class="cls-103" x="38.62" y="36.7" width="0.3" height="53.5"/><rect class="cls-104" x="38.92" y="36.7" width="0.3" height="53.5"/><rect class="cls-105" x="39.22" y="36.7" width="0.3" height="53.5"/><rect class="cls-106" x="39.51" y="36.7" width="0.3" height="53.5"/><rect class="cls-107" x="39.81" y="36.7" width="0.3" height="53.5"/><rect class="cls-108" x="40.1" y="36.7" width="0.3" height="53.5"/><rect class="cls-109" x="40.4" y="36.7" width="0.3" height="53.5"/><rect class="cls-110" x="40.69" y="36.7" width="0.3" height="53.5"/><rect class="cls-111" x="40.99" y="36.7" width="0.3" height="53.5"/><rect class="cls-112" x="41.28" y="36.7" width="0.3" height="53.5"/><rect class="cls-113" x="41.58" y="36.7" width="0.3" height="53.5"/><rect class="cls-114" x="41.88" y="36.7" width="0.3" height="53.5"/><rect class="cls-115" x="42.17" y="36.7" width="0.3" height="53.5"/><rect class="cls-116" x="42.47" y="36.7" width="0.3" height="53.5"/><rect class="cls-117" x="42.76" y="36.7" width="0.3" height="53.5"/><rect class="cls-118" x="43.06" y="36.7" width="0.3" height="53.5"/><rect class="cls-119" x="43.35" y="36.7" width="0.3" height="53.5"/><rect class="cls-120" x="43.65" y="36.7" width="0.3" height="53.5"/><rect class="cls-121" x="43.94" y="36.7" width="0.3" height="53.5"/><rect class="cls-122" x="44.24" y="36.7" width="0.3" height="53.5"/><rect class="cls-123" x="44.54" y="36.7" width="0.3" height="53.5"/><rect class="cls-124" x="44.83" y="36.7" width="0.3" height="53.5"/><rect class="cls-125" x="45.13" y="36.7" width="0.3" height="53.5"/><rect class="cls-126" x="45.42" y="36.7" width="0.3" height="53.5"/><rect class="cls-127" x="45.72" y="36.7" width="0.3" height="53.5"/><rect class="cls-128" x="46.01" y="36.7" width="0.3" height="53.5"/><rect class="cls-129" x="46.31" y="36.7" width="0.3" height="53.5"/><rect class="cls-130" x="46.6" y="36.7" width="0.3" height="53.5"/><rect class="cls-131" x="46.9" y="36.7" width="0.3" height="53.5"/><rect class="cls-132" x="47.2" y="36.7" width="0.3" height="53.5"/><rect class="cls-133" x="47.49" y="36.7" width="0.3" height="53.5"/><rect class="cls-134" x="47.79" y="36.7" width="0.3" height="53.5"/><rect class="cls-135" x="48.08" y="36.7" width="0.3" height="53.5"/><rect class="cls-136" x="48.38" y="36.7" width="0.3" height="53.5"/><rect class="cls-137" x="48.67" y="36.7" width="0.3" height="53.5"/><rect class="cls-138" x="48.97" y="36.7" width="0.3" height="53.5"/><rect class="cls-139" x="49.26" y="36.7" width="0.3" height="53.5"/><rect class="cls-140" x="49.56" y="36.7" width="0.3" height="53.5"/><rect class="cls-141" x="49.86" y="36.7" width="0.3" height="53.5"/><rect class="cls-142" x="50.15" y="36.7" width="0.3" height="53.5"/><rect class="cls-143" x="50.45" y="36.7" width="0.3" height="53.5"/><rect class="cls-144" x="50.74" y="36.7" width="0.3" height="53.5"/><rect class="cls-145" x="51.04" y="36.7" width="0.3" height="53.5"/><rect class="cls-146" x="51.33" y="36.7" width="0.3" height="53.5"/><rect class="cls-147" x="51.63" y="36.7" width="0.3" height="53.5"/><rect class="cls-148" x="51.93" y="36.7" width="0.3" height="53.5"/><rect class="cls-149" x="52.22" y="36.7" width="0.3" height="53.5"/><rect class="cls-150" x="52.52" y="36.7" width="0.3" height="53.5"/><rect class="cls-151" x="52.81" y="36.7" width="0.3" height="53.5"/><rect class="cls-152" x="53.11" y="36.7" width="0.3" height="53.5"/><rect class="cls-153" x="53.4" y="36.7" width="0.3" height="53.5"/><rect class="cls-154" x="53.7" y="36.7" width="0.3" height="53.5"/><rect class="cls-155" x="53.99" y="36.7" width="0.3" height="53.5"/><rect class="cls-156" x="54.29" y="36.7" width="0.3" height="53.5"/><rect class="cls-157" x="54.59" y="36.7" width="0.3" height="53.5"/><rect class="cls-158" x="54.88" y="36.7" width="0.3" height="53.5"/><rect class="cls-159" x="55.18" y="36.7" width="0.3" height="53.5"/><rect class="cls-160" x="55.47" y="36.7" width="0.3" height="53.5"/><rect class="cls-161" x="55.77" y="36.7" width="0.3" height="53.5"/><rect class="cls-162" x="56.06" y="36.7" width="0.3" height="53.5"/><rect class="cls-163" x="56.36" y="36.7" width="0.3" height="53.5"/><rect class="cls-164" x="56.65" y="36.7" width="0.3" height="53.5"/><rect class="cls-165" x="56.95" y="36.7" width="0.3" height="53.5"/><rect class="cls-166" x="57.25" y="36.7" width="0.3" height="53.5"/><rect class="cls-167" x="57.54" y="36.7" width="0.3" height="53.5"/><rect class="cls-168" x="57.84" y="36.7" width="0.3" height="53.5"/><rect class="cls-169" x="58.13" y="36.7" width="0.3" height="53.5"/><rect class="cls-170" x="58.43" y="36.7" width="0.3" height="53.5"/><rect class="cls-171" x="58.72" y="36.7" width="0.3" height="53.5"/><rect class="cls-172" x="59.02" y="36.7" width="0.3" height="53.5"/><rect class="cls-173" x="59.31" y="36.7" width="0.3" height="53.5"/><rect class="cls-174" x="59.61" y="36.7" width="0.3" height="53.5"/><rect class="cls-175" x="59.91" y="36.7" width="0.3" height="53.5"/><rect class="cls-176" x="60.2" y="36.7" width="0.3" height="53.5"/><rect class="cls-177" x="60.5" y="36.7" width="0.3" height="53.5"/><rect class="cls-178" x="60.79" y="36.7" width="0.3" height="53.5"/><rect class="cls-179" x="61.09" y="36.7" width="0.3" height="53.5"/><rect class="cls-180" x="61.38" y="36.7" width="0.3" height="53.5"/><rect class="cls-181" x="61.68" y="36.7" width="0.3" height="53.5"/><rect class="cls-182" x="61.97" y="36.7" width="0.3" height="53.5"/><rect class="cls-183" x="62.27" y="36.7" width="0.3" height="53.5"/><rect class="cls-184" x="62.57" y="36.7" width="0.3" height="53.5"/><rect class="cls-185" x="62.86" y="36.7" width="0.3" height="53.5"/><rect class="cls-186" x="63.16" y="36.7" width="0.3" height="53.5"/><rect class="cls-187" x="63.45" y="36.7" width="0.3" height="53.5"/><rect class="cls-188" x="63.75" y="36.7" width="0.3" height="53.5"/><rect class="cls-189" x="64.04" y="36.7" width="0.3" height="53.5"/><rect class="cls-190" x="64.34" y="36.7" width="0.3" height="53.5"/><rect class="cls-191" x="64.63" y="36.7" width="0.3" height="53.5"/><rect class="cls-192" x="64.93" y="36.7" width="0.3" height="53.5"/><rect class="cls-193" x="65.23" y="36.7" width="0.3" height="53.5"/><rect class="cls-194" x="65.52" y="36.7" width="0.3" height="53.5"/><rect class="cls-195" x="65.82" y="36.7" width="0.3" height="53.5"/><rect class="cls-196" x="66.11" y="36.7" width="0.3" height="53.5"/><rect class="cls-197" x="66.41" y="36.7" width="0.3" height="53.5"/><rect class="cls-198" x="66.7" y="36.7" width="0.3" height="53.5"/><rect class="cls-199" x="67" y="36.7" width="0.3" height="53.5"/><rect class="cls-200" x="67.29" y="36.7" width="0.3" height="53.5"/><rect class="cls-201" x="67.59" y="36.7" width="0.3" height="53.5"/><rect class="cls-202" x="67.89" y="36.7" width="0.3" height="53.5"/><rect class="cls-203" x="68.18" y="36.7" width="0.3" height="53.5"/><rect class="cls-204" x="68.48" y="36.7" width="0.3" height="53.5"/><rect class="cls-205" x="68.77" y="36.7" width="0.3" height="53.5"/><rect class="cls-206" x="69.07" y="36.7" width="0.3" height="53.5"/><rect class="cls-207" x="69.36" y="36.7" width="0.3" height="53.5"/><rect class="cls-208" x="69.66" y="36.7" width="0.3" height="53.5"/><rect class="cls-209" x="69.96" y="36.7" width="0.3" height="53.5"/><rect class="cls-210" x="70.25" y="36.7" width="0.3" height="53.5"/><rect class="cls-211" x="70.55" y="36.7" width="0.3" height="53.5"/><rect class="cls-212" x="70.84" y="36.7" width="0.3" height="53.5"/><rect class="cls-213" x="71.14" y="36.7" width="0.3" height="53.5"/><rect class="cls-214" x="71.43" y="36.7" width="0.3" height="53.5"/><rect class="cls-215" x="71.73" y="36.7" width="0.3" height="53.5"/><rect class="cls-216" x="72.02" y="36.7" width="0.3" height="53.5"/><rect class="cls-217" x="72.32" y="36.7" width="0.3" height="53.5"/><rect class="cls-218" x="72.62" y="36.7" width="0.3" height="53.5"/><rect class="cls-219" x="72.91" y="36.7" width="0.3" height="53.5"/><rect class="cls-220" x="73.21" y="36.7" width="0.3" height="53.5"/><rect class="cls-221" x="73.5" y="36.7" width="0.3" height="53.5"/><rect class="cls-222" x="73.8" y="36.7" width="0.3" height="53.5"/><rect class="cls-223" x="74.09" y="36.7" width="0.3" height="53.5"/><rect class="cls-224" x="74.39" y="36.7" width="0.3" height="53.5"/><rect class="cls-225" x="74.68" y="36.7" width="0.3" height="53.5"/><rect class="cls-226" x="74.98" y="36.7" width="0.3" height="53.5"/><rect class="cls-2" x="75.28" y="36.7" width="0.3" height="53.5"/><path class="cls-2" d="M75.57,90.2v0Z"/></g><path class="cls-2" d="M39.56,46s-8.13,9.29,0,27.88c2.33,4.64,45.3,52.27,45.3,52.27H54.66L9.36,76.19Z"/></g></g></svg>