<svg width="60" height="18" viewBox="0 0 60 18" fill="none" xmlns="http://www.w3.org/2000/svg">
<path d="M0.648438 8.92712C0.648438 4.00013 5.299 0 11.0228 0C16.7465 0 21.3971 4.00013 21.3971 8.92712C21.3971 13.8541 16.7465 17.8542 11.0228 17.8542C5.299 17.8542 0.648438 13.8541 0.648438 8.92712Z" fill="#003874"/>
<path d="M9.75446 2.87814L12.1773 2.08136V15.1062L9.75446 15.9192V2.87814Z" fill="#ED1C24"/>
<path d="M34.8284 14.0817C37.1375 14.0817 38.9099 12.7321 38.9099 10.4231C38.9099 8.09781 37.1537 6.74817 34.8284 6.74817C32.5194 6.74817 30.747 8.09781 30.747 10.4231C30.747 12.7321 32.5194 14.0817 34.8284 14.0817ZM34.8284 12.3906C33.7065 12.3906 33.2512 11.4638 33.2512 10.4231C33.2512 9.36614 33.7065 8.43928 34.8284 8.43928C35.9504 8.43928 36.4057 9.36614 36.4057 10.4231C36.4057 11.4638 35.9504 12.3906 34.8284 12.3906Z" fill="#ED1C24"/>
<path d="M38.6822 8.60187H40.0643V11.4638C40.0643 13.1386 40.5847 14.098 42.7636 14.098C43.3653 14.098 43.8206 14.0167 44.2921 13.9679L44.2108 12.3906C43.9669 12.4231 43.7067 12.4882 43.4628 12.4882C42.6986 12.4882 42.4872 12.0491 42.4872 11.2036V8.60187H44.1783V6.91076H42.4872V4.48792L40.1131 5.33347V6.91076H38.6822V8.60187" fill="#ED1C24"/>
<path d="M52.6827 13.9191H55.1055V10.4556H55.1218L57.0731 13.9191H60L57.3658 10.1304L59.8049 6.91076H57.1381L55.1218 9.85395H55.1055V4.48792L52.6827 5.31721V13.9191Z" fill="#ED1C24"/>
<path d="M24.3077 13.9191H26.7306V10.4556H26.7468L28.6981 13.9191H31.6251L28.9908 10.1304L31.4299 6.91076H28.7632L26.7468 9.85395H26.7306V4.48792L24.3077 5.28469V13.9191Z" fill="#ED1C24"/>
<path d="M51.8209 13.9516C51.707 13.3988 51.6908 12.8297 51.6908 12.2768V9.62629C51.6908 7.46362 50.1297 6.68311 48.3086 6.68311C47.2516 6.68311 46.341 6.82945 45.4792 7.18719L45.528 8.84578C46.2109 8.47178 46.9914 8.30918 47.7882 8.30918C48.6663 8.30918 49.398 8.56935 49.4143 9.52873C49.1053 9.47995 48.6663 9.43116 48.276 9.43116C46.9752 9.43116 44.6174 9.69133 44.6174 11.854C44.6174 13.3988 45.8694 14.0817 47.2679 14.0817C48.276 14.0817 48.959 13.6915 49.5118 12.7971H49.5444C49.5444 13.1711 49.5931 13.5289 49.5931 13.9191H51.8209V13.9516ZM46.8613 11.7077C46.8613 11.0247 47.5118 10.7645 48.3411 10.7645C48.7151 10.7645 49.0565 10.7971 49.3818 10.8133C49.3818 11.6426 48.7964 12.4882 47.8695 12.4882C47.3004 12.4882 46.8613 12.1955 46.8613 11.7077Z" fill="#ED1C24"/>
<path d="M18.8279 9.82147C18.6002 11.6915 17.5595 13.5614 15.2668 13.5777C13.9334 13.5777 12.8927 12.6671 12.1773 11.5451V10.2443C13.0716 10.6996 13.9172 11.1711 14.9416 11.1874C16.2099 11.2036 17.3482 10.7158 17.8197 9.82147H18.8279V9.82147ZM11.1854 10.9922C10.1447 12.2606 9.12025 13.5452 7.234 13.5452C4.55099 13.5452 3.28265 10.9597 3.28265 8.79705C3.28265 6.71568 4.27456 4.26031 6.89253 4.26031C8.03078 4.26031 9.12024 4.95953 9.77067 5.69126V7.46367C9.23407 7.10594 8.01452 6.7482 7.21774 6.73194C5.55915 6.69942 4.11195 7.41489 4.12821 9.05722C4.14447 10.1792 5.26646 10.9435 6.37219 10.9435C8.0633 10.9435 9.10398 9.3987 9.94954 8.21166C10.1935 7.90271 10.8601 6.99211 10.974 6.86203C11.9333 5.52865 13.0391 4.3091 14.9253 4.3091C17.153 4.3091 18.4051 6.11403 18.7628 7.96775H17.7547C17.3482 7.36611 16.5676 6.99211 15.8034 6.99211C14.0472 6.99211 13.0066 8.60192 12.1285 9.78895C12.1285 9.77269 11.4455 10.6996 11.1854 10.9922Z" fill="white"/>
<path d="M26.7469 10.4556H26.7143V13.9354H24.3078V10.5044L24.2915 13.968H25.5111H26.7306L26.7469 12.2443L26.7631 10.5207L27.7225 12.2443L28.6819 13.968H30.1454C30.8283 13.968 31.2186 13.9517 31.4137 13.9354H28.6982L26.7469 10.4556ZM30.9909 7.47994L28.9908 10.1304L31.3974 13.594C31.1698 13.2525 30.7307 12.6183 30.2429 11.9354L28.9908 10.1304L30.1779 8.5694C30.4868 8.14662 30.7795 7.75637 30.9909 7.47994ZM26.7306 5.59369V9.854H26.7631L28.7795 6.91081H31.0885C30.8446 6.89455 30.4868 6.89455 30.0641 6.89455H28.7632L27.7713 8.35801L26.7794 9.82148L26.7631 7.17098C26.7469 6.5856 26.7306 6.03273 26.7306 5.59369ZM26.2265 4.65057C26.0151 4.71562 25.755 4.79692 25.4623 4.89448L24.324 5.26848L26.2265 4.65057Z" fill="white"/>
<path d="M26.6655 4.52051C26.6493 4.52051 26.4704 4.56929 26.2265 4.65059L24.3402 5.2685L24.324 9.61011V10.4882V13.9192H26.7468V10.4394H26.7793L28.7144 13.9192H31.4462C31.5762 13.9029 31.6088 13.8704 31.5925 13.8379C31.5762 13.8216 31.5275 13.7241 31.4136 13.5777L29.0071 10.1142L31.0071 7.4637C31.2348 7.15474 31.3811 6.94335 31.3811 6.92709C31.3811 6.91083 31.2836 6.89457 31.1047 6.89457H28.7957L26.7468 9.85402H26.7143V5.59371C26.7143 4.94329 26.6818 4.52051 26.6655 4.52051Z" fill="#ED1C24"/>
</svg>
