<svg xmlns="http://www.w3.org/2000/svg" width="25.137" height="25" viewBox="0 0 25.137 25"><defs><style>.a{fill:#fff;}</style></defs><path class="a" d="M19.638,0H5.5A5.484,5.484,0,0,0,0,5.469V19.531A5.484,5.484,0,0,0,5.5,25H19.638a5.484,5.484,0,0,0,5.5-5.469V5.469A5.484,5.484,0,0,0,19.638,0Zm3.928,19.531a3.917,3.917,0,0,1-3.928,3.906H5.5a3.917,3.917,0,0,1-3.928-3.906V5.469A3.917,3.917,0,0,1,5.5,1.563H19.638a3.917,3.917,0,0,1,3.928,3.906Z"/><path class="a" d="M114.357,112h-1.571a.786.786,0,0,0-.786.786v1.571a.785.785,0,0,0,.786.786h1.571a.785.785,0,0,0,.786-.786v-1.571A.785.785,0,0,0,114.357,112Z" transform="translate(-106.501 -106.536)"/><path class="a" d="M114.357,224h-1.571a.786.786,0,0,0-.786.786v1.571a.786.786,0,0,0,.786.786h1.571a.785.785,0,0,0,.786-.786v-1.571A.786.786,0,0,0,114.357,224Z" transform="translate(-106.501 -213.071)"/><path class="a" d="M114.357,336h-1.571a.786.786,0,0,0-.786.786v1.571a.785.785,0,0,0,.786.786h1.571a.785.785,0,0,0,.786-.786v-1.571A.786.786,0,0,0,114.357,336Z" transform="translate(-106.501 -319.607)"/><rect class="a" width="10" height="2" transform="translate(9.568 6.53)"/><rect class="a" width="10" height="2" transform="translate(9.568 11.5)"/><rect class="a" width="10" height="2" transform="translate(9.568 16.466)"/></svg>