<svg xmlns="http://www.w3.org/2000/svg" xmlns:xlink="http://www.w3.org/1999/xlink" viewBox="0 0 324.23 128.82"><defs><style>.cls-1{fill:none;}.cls-2{fill:#1518af;}.cls-3{clip-path:url(#clip-path);}.cls-4{fill:#e8003c;}.cls-5{fill:#e7003c;}.cls-6{fill:#e6003c;}.cls-7{fill:#e5003c;}.cls-8{fill:#e4013b;}.cls-9{fill:#e3013b;}.cls-10{fill:#e2013b;}.cls-11{fill:#e1013b;}.cls-12{fill:#e0013b;}.cls-13{fill:#df013b;}.cls-14{fill:#de023b;}.cls-15{fill:#dd023a;}.cls-16{fill:#dc023a;}.cls-17{fill:#db023a;}.cls-18{fill:#da023a;}.cls-19{fill:#d9023a;}.cls-20{fill:#d8033a;}.cls-21{fill:#d7033a;}.cls-22{fill:#d60339;}.cls-23{fill:#d50339;}.cls-24{fill:#d40339;}.cls-25{fill:#d30339;}.cls-26{fill:#d20339;}.cls-27{fill:#d10439;}.cls-28{fill:#d00439;}.cls-29{fill:#cf0438;}.cls-30{fill:#ce0438;}.cls-31{fill:#cd0438;}.cls-32{fill:#cc0438;}.cls-33{fill:#cb0538;}.cls-34{fill:#ca0538;}.cls-35{fill:#c90538;}.cls-36{fill:#c80537;}.cls-37{fill:#c70537;}.cls-38{fill:#c60537;}.cls-39{fill:#c50637;}.cls-40{fill:#c40637;}.cls-41{fill:#c30637;}.cls-42{fill:#c20637;}.cls-43{fill:#c10636;}.cls-44{fill:#c00636;}.cls-45{fill:#bf0636;}.cls-46{fill:#be0736;}.cls-47{fill:#bd0736;}.cls-48{fill:#bc0736;}.cls-49{fill:#bb0736;}.cls-50{fill:#ba0735;}.cls-51{fill:#b90735;}.cls-52{fill:#b80835;}.cls-53{fill:#b70835;}.cls-54{fill:#b60835;}.cls-55{fill:#b50835;}.cls-56{fill:#b40835;}.cls-57{fill:#b30834;}.cls-58{fill:#b20934;}.cls-59{fill:#b10934;}.cls-60{fill:#b00934;}.cls-61{fill:#af0934;}.cls-62{fill:#ae0934;}.cls-63{fill:#ad0934;}.cls-64{fill:#ac0933;}.cls-65{fill:#ab0a33;}.cls-66{fill:#aa0a33;}.cls-67{fill:#a90a33;}.cls-68{fill:#a80a33;}.cls-69{fill:#a70a33;}.cls-70{fill:#a60a33;}.cls-71{fill:#a50b32;}.cls-72{fill:#a40b32;}.cls-73{fill:#a30b32;}.cls-74{fill:#a20b32;}.cls-75{fill:#a10b32;}.cls-76{fill:#a00b32;}.cls-77{fill:#9f0c32;}.cls-78{fill:#9e0c31;}.cls-79{fill:#9d0c31;}.cls-80{fill:#9c0c31;}.cls-81{fill:#9b0c31;}.cls-82{fill:#9a0c31;}.cls-83{fill:#990c31;}.cls-84{fill:#980d31;}.cls-85{fill:#970d30;}.cls-86{fill:#960d30;}.cls-87{fill:#950d30;}.cls-88{fill:#940d30;}.cls-89{fill:#930d30;}.cls-90{fill:#920e30;}.cls-91{fill:#910e30;}.cls-92{fill:#900e2f;}.cls-93{fill:#8f0e2f;}.cls-94{fill:#8e0e2f;}.cls-95{fill:#8d0e2f;}.cls-96{fill:#8c0f2f;}.cls-97{fill:#8b0f2f;}.cls-98{fill:#8a0f2f;}.cls-99{fill:#890f2e;}.cls-100{fill:#880f2e;}.cls-101{fill:#870f2e;}.cls-102{fill:#860f2e;}.cls-103{fill:#84102e;}.cls-104{fill:#83102e;}.cls-105{fill:#82102e;}.cls-106{fill:#81102d;}.cls-107{fill:#80102d;}.cls-108{fill:#7f102d;}.cls-109{fill:#7e112d;}.cls-110{fill:#7d112d;}.cls-111{fill:#7c112d;}.cls-112{fill:#7b112d;}.cls-113{fill:#7a112c;}.cls-114{fill:#79112c;}.cls-115{fill:#78122c;}.cls-116{fill:#77122c;}.cls-117{fill:#76122c;}.cls-118{fill:#75122c;}.cls-119{fill:#74122c;}.cls-120{fill:#73122b;}.cls-121{fill:#72132b;}.cls-122{fill:#71132b;}.cls-123{fill:#70132b;}.cls-124{fill:#6f132b;}.cls-125{fill:#6e132b;}.cls-126{fill:#6d132b;}.cls-127{fill:#6c132a;}.cls-128{fill:#6b142a;}.cls-129{fill:#6a142a;}.cls-130{fill:#69142a;}.cls-131{fill:#68142a;}.cls-132{fill:#67142a;}.cls-133{fill:#66142a;}.cls-134{fill:#651529;}.cls-135{fill:#641529;}.cls-136{fill:#631529;}.cls-137{fill:#621529;}.cls-138{fill:#611529;}.cls-139{fill:#601529;}.cls-140{fill:#5f1629;}.cls-141{fill:#5e1628;}.cls-142{fill:#5d1628;}.cls-143{fill:#5c1628;}.cls-144{fill:#5b1628;}.cls-145{fill:#5a1628;}.cls-146{fill:#591628;}.cls-147{fill:#581728;}.cls-148{fill:#571727;}.cls-149{fill:#561727;}.cls-150{fill:#551727;}.cls-151{fill:#541727;}.cls-152{fill:#531727;}.cls-153{fill:#521827;}.cls-154{fill:#511827;}.cls-155{fill:#501826;}.cls-156{fill:#4f1826;}.cls-157{fill:#4e1826;}.cls-158{fill:#4d1826;}.cls-159{fill:#4c1926;}.cls-160{fill:#4b1926;}.cls-161{fill:#4a1926;}.cls-162{fill:#491925;}.cls-163{fill:#481925;}.cls-164{fill:#471925;}.cls-165{fill:#461925;}.cls-166{fill:#451a25;}.cls-167{fill:#441a25;}.cls-168{fill:#431a25;}.cls-169{fill:#421a24;}.cls-170{fill:#411a24;}.cls-171{fill:#401a24;}.cls-172{fill:#3f1b24;}.cls-173{fill:#3e1b24;}.cls-174{fill:#3d1b24;}.cls-175{fill:#3c1b24;}.cls-176{fill:#3b1b23;}.cls-177{fill:#3a1b23;}.cls-178{fill:#391c23;}.cls-179{fill:#381c23;}.cls-180{fill:#371c23;}.cls-181{fill:#361c23;}.cls-182{fill:#351c23;}.cls-183{fill:#341c22;}.cls-184{fill:#331c22;}.cls-185{fill:#321d22;}.cls-186{fill:#311d22;}.cls-187{fill:#301d22;}.cls-188{fill:#2f1d22;}.cls-189{fill:#2e1d22;}.cls-190{fill:#2d1d21;}.cls-191{fill:#2c1e21;}.cls-192{fill:#2b1e21;}.cls-193{fill:#2a1e21;}.cls-194{fill:#291e21;}.cls-195{fill:#281e21;}.cls-196{fill:#271e21;}.cls-197{fill:#261f20;}.cls-198{fill:#251f20;}.cls-199{fill:#241f20;}.cls-200{fill:#231f20;}</style><clipPath id="clip-path"><polygon class="cls-1" points="9.36 76.19 48.85 36.7 75.57 36.7 22.35 90.2 9.36 76.19"/></clipPath></defs><title>Asset 16</title><g id="Layer_2" data-name="Layer 2"><g id="Layer_1-2" data-name="Layer 1"><path class="cls-2" d="M116.25,126.32H92.92V0h23.33Z"/><path class="cls-2" d="M161.75,101.32a12.59,12.59,0,0,0,1.67,6.83q1.67,2.67,6,2.67a11.7,11.7,0,0,0,3.16-.42,20.62,20.62,0,0,1,3.84-.58,5.7,5.7,0,0,1,3.58.83,16.36,16.36,0,0,1,3.08,2.59,22.29,22.29,0,0,1,2.75,3.58c.83,1.33,1.64,2.67,2.42,4a74.79,74.79,0,0,1-14.5,6,45.94,45.94,0,0,1-12,1.67,23,23,0,0,1-8.56-1.67,21.49,21.49,0,0,1-7.47-5,25.26,25.26,0,0,1-5.29-8.33,31.67,31.67,0,0,1-2-11.83V40.16h23.33Zm36.83,25a25.12,25.12,0,0,1-5.17-8.92,32.33,32.33,0,0,1-1.33-9.41V40.16h23.33v65.16a91.92,91.92,0,0,0,2.67,21Z"/><path class="cls-2" d="M284.57,55.49a8.81,8.81,0,0,1-4.83-.91,12.12,12.12,0,0,1-3.5-2.84,24.56,24.56,0,0,1-2.84-4.16q-1.33-2.41-2.5-4.92a53.61,53.61,0,0,1,9.75-3,47,47,0,0,1,9.25-1,28.12,28.12,0,0,1,14.33,3.67A35.43,35.43,0,0,1,315,51.91a46,46,0,0,1,6.83,13.33,48,48,0,0,1,2.42,14.92,56.59,56.59,0,0,1-3.17,19.08,45.17,45.17,0,0,1-9.16,15.5,42.59,42.59,0,0,1-14.5,10.33,46.59,46.59,0,0,1-19,3.75,76.5,76.5,0,0,1-17.83-2.08,82.43,82.43,0,0,1-18.83-7.42V0h23.33V110a47.66,47.66,0,0,0,7,1.33,61.79,61.79,0,0,0,6.46.33,16.59,16.59,0,0,0,8.71-2.33,20.43,20.43,0,0,0,6.63-6.5,31.39,31.39,0,0,0,4.15-10,53.77,53.77,0,0,0,1.41-12.66,50.39,50.39,0,0,0-.75-8.42,30.4,30.4,0,0,0-2.5-8.08,17.36,17.36,0,0,0-4.58-6A10,10,0,0,0,284.57,55.49Z"/><path class="cls-2" d="M23.33,126.32H0V0H23.33Z"/><g class="cls-3"><path class="cls-4" d="M75.57,37.48l-.45-.78Z"/><polygon class="cls-5" points="75.57 38.26 74.67 36.7 75.12 36.7 75.57 37.48 75.57 38.26"/><polygon class="cls-6" points="75.57 39.04 74.22 36.7 74.67 36.7 75.57 38.26 75.57 39.04"/><polygon class="cls-7" points="75.57 39.83 73.76 36.7 74.22 36.7 75.57 39.04 75.57 39.83"/><polygon class="cls-8" points="75.57 40.61 73.31 36.7 73.76 36.7 75.57 39.83 75.57 40.61"/><polygon class="cls-9" points="75.57 41.39 72.86 36.7 73.31 36.7 75.57 40.61 75.57 41.39"/><polygon class="cls-10" points="75.57 42.17 72.41 36.7 72.86 36.7 75.57 41.39 75.57 42.17"/><polygon class="cls-11" points="75.57 42.96 71.96 36.7 72.41 36.7 75.57 42.17 75.57 42.96"/><polygon class="cls-12" points="75.57 43.74 71.5 36.7 71.96 36.7 75.57 42.96 75.57 43.74"/><polygon class="cls-13" points="75.57 44.52 71.05 36.7 71.5 36.7 75.57 43.74 75.57 44.52"/><polygon class="cls-14" points="75.57 45.3 70.6 36.7 71.05 36.7 75.57 44.52 75.57 45.3"/><polygon class="cls-15" points="75.57 46.09 70.15 36.7 70.6 36.7 75.57 45.3 75.57 46.09"/><polygon class="cls-16" points="75.57 46.87 69.7 36.7 70.15 36.7 75.57 46.09 75.57 46.87"/><polygon class="cls-17" points="75.57 47.65 69.25 36.7 69.7 36.7 75.57 46.87 75.57 47.65"/><polygon class="cls-18" points="75.57 48.44 68.79 36.7 69.25 36.7 75.57 47.65 75.57 48.44"/><polygon class="cls-19" points="75.57 49.22 68.34 36.7 68.79 36.7 75.57 48.44 75.57 49.22"/><polygon class="cls-20" points="75.57 50 67.89 36.7 68.34 36.7 75.57 49.22 75.57 50"/><polygon class="cls-21" points="75.57 50.78 67.44 36.7 67.89 36.7 75.57 50 75.57 50.78"/><polygon class="cls-22" points="75.57 51.56 66.99 36.7 67.44 36.7 75.57 50.78 75.57 51.56"/><polygon class="cls-23" points="75.57 52.35 66.53 36.7 66.99 36.7 75.57 51.56 75.57 52.35"/><polygon class="cls-24" points="75.57 53.13 66.08 36.7 66.53 36.7 75.57 52.35 75.57 53.13"/><polygon class="cls-25" points="75.57 53.91 65.63 36.7 66.08 36.7 75.57 53.13 75.57 53.91"/><polygon class="cls-26" points="75.57 54.7 65.18 36.7 65.63 36.7 75.57 53.91 75.57 54.7"/><polygon class="cls-27" points="75.57 55.48 64.73 36.7 65.18 36.7 75.57 54.7 75.57 55.48"/><polygon class="cls-28" points="75.57 56.26 64.28 36.7 64.73 36.7 75.57 55.48 75.57 56.26"/><polygon class="cls-29" points="75.57 57.04 63.82 36.7 64.28 36.7 75.57 56.26 75.57 57.04"/><polygon class="cls-30" points="75.57 57.83 63.37 36.7 63.82 36.7 75.57 57.04 75.57 57.83"/><polygon class="cls-31" points="75.57 58.61 62.92 36.7 63.37 36.7 75.57 57.83 75.57 58.61"/><polygon class="cls-32" points="75.57 59.39 62.47 36.7 62.92 36.7 75.57 58.61 75.57 59.39"/><polygon class="cls-33" points="75.57 60.17 62.02 36.7 62.47 36.7 75.57 59.39 75.57 60.17"/><polygon class="cls-34" points="75.57 60.96 61.56 36.7 62.02 36.7 75.57 60.17 75.57 60.96"/><polygon class="cls-35" points="75.57 61.74 61.11 36.7 61.56 36.7 75.57 60.96 75.57 61.74"/><polygon class="cls-36" points="75.57 61.78 75.25 61.97 60.66 36.7 61.11 36.7 75.57 61.74 75.57 61.78"/><polygon class="cls-37" points="75.25 61.97 74.91 62.16 60.21 36.7 60.66 36.7 75.25 61.97"/><polygon class="cls-38" points="74.91 62.16 74.57 62.36 59.76 36.7 60.21 36.7 74.91 62.16"/><polygon class="cls-39" points="74.57 62.36 74.23 62.55 59.3 36.7 59.76 36.7 74.57 62.36"/><polygon class="cls-40" points="74.23 62.55 73.89 62.75 58.85 36.7 59.3 36.7 74.23 62.55"/><polygon class="cls-41" points="73.89 62.75 73.56 62.94 58.4 36.7 58.85 36.7 73.89 62.75"/><polygon class="cls-42" points="73.56 62.94 73.22 63.14 57.95 36.7 58.4 36.7 73.56 62.94"/><polygon class="cls-43" points="73.22 63.14 72.88 63.33 57.5 36.7 57.95 36.7 73.22 63.14"/><polygon class="cls-44" points="72.88 63.33 72.54 63.53 57.05 36.7 57.5 36.7 72.88 63.33"/><polygon class="cls-45" points="72.54 63.53 72.2 63.73 56.59 36.7 57.05 36.7 72.54 63.53"/><polygon class="cls-46" points="72.2 63.73 71.86 63.92 56.14 36.7 56.59 36.7 72.2 63.73"/><polygon class="cls-47" points="71.86 63.92 71.52 64.12 55.69 36.7 56.14 36.7 71.86 63.92"/><polygon class="cls-48" points="71.52 64.12 71.18 64.31 55.24 36.7 55.69 36.7 71.52 64.12"/><polygon class="cls-49" points="71.18 64.31 70.84 64.51 54.79 36.7 55.24 36.7 71.18 64.31"/><polygon class="cls-50" points="70.84 64.51 70.5 64.7 54.34 36.7 54.79 36.7 70.84 64.51"/><polygon class="cls-51" points="70.5 64.7 70.17 64.9 53.88 36.7 54.34 36.7 70.5 64.7"/><polygon class="cls-52" points="70.17 64.9 69.83 65.09 53.43 36.7 53.88 36.7 70.17 64.9"/><polygon class="cls-53" points="69.83 65.09 69.49 65.29 52.98 36.7 53.43 36.7 69.83 65.09"/><polygon class="cls-54" points="69.49 65.29 69.15 65.49 52.53 36.7 52.98 36.7 69.49 65.29"/><polygon class="cls-55" points="69.15 65.49 68.81 65.68 52.08 36.7 52.53 36.7 69.15 65.49"/><polygon class="cls-56" points="68.81 65.68 68.47 65.88 51.62 36.7 52.08 36.7 68.81 65.68"/><polygon class="cls-57" points="68.47 65.88 68.13 66.07 51.17 36.7 51.62 36.7 68.47 65.88"/><polygon class="cls-58" points="68.13 66.07 67.79 66.27 50.72 36.7 51.17 36.7 68.13 66.07"/><polygon class="cls-59" points="67.79 66.27 67.45 66.46 50.27 36.7 50.72 36.7 67.79 66.27"/><polygon class="cls-60" points="67.45 66.46 67.12 66.66 49.82 36.7 50.27 36.7 67.45 66.46"/><polygon class="cls-61" points="67.12 66.66 66.78 66.86 49.37 36.7 49.82 36.7 67.12 66.66"/><polygon class="cls-62" points="66.78 66.86 66.44 67.05 48.91 36.7 49.37 36.7 66.78 66.86"/><polygon class="cls-63" points="66.44 67.05 66.1 67.25 48.46 36.7 48.91 36.7 66.44 67.05"/><polygon class="cls-64" points="66.1 67.25 65.76 67.44 48.01 36.7 48.46 36.7 66.1 67.25"/><polygon class="cls-65" points="65.76 67.44 65.42 67.64 47.56 36.7 48.01 36.7 65.76 67.44"/><polygon class="cls-66" points="65.42 67.64 65.08 67.83 47.11 36.7 47.56 36.7 65.42 67.64"/><polygon class="cls-67" points="65.08 67.83 64.74 68.03 46.65 36.7 47.11 36.7 65.08 67.83"/><polygon class="cls-68" points="64.74 68.03 64.41 68.22 46.2 36.7 46.65 36.7 64.74 68.03"/><polygon class="cls-69" points="64.41 68.22 64.07 68.42 45.75 36.7 46.2 36.7 64.41 68.22"/><polygon class="cls-70" points="64.07 68.42 63.73 68.62 45.3 36.7 45.75 36.7 64.07 68.42"/><polygon class="cls-71" points="63.73 68.62 63.39 68.81 44.85 36.7 44.85 36.7 45.3 36.7 63.73 68.62"/><rect class="cls-72" x="53.75" y="34.31" width="0.39" height="37.08" transform="translate(-19.2 34.06) rotate(-30)"/><rect class="cls-73" x="53.41" y="34.51" width="0.39" height="37.08" transform="matrix(0.87, -0.5, 0.5, 0.87, -19.34, 33.91)"/><rect class="cls-74" x="53.08" y="34.71" width="0.39" height="37.08" transform="translate(-19.49 33.77) rotate(-30)"/><rect class="cls-75" x="52.74" y="34.9" width="0.39" height="37.08" transform="matrix(0.87, -0.5, 0.5, 0.87, -19.63, 33.63)"/><rect class="cls-76" x="52.4" y="35.1" width="0.39" height="37.08" transform="translate(-19.77 33.48) rotate(-30)"/><rect class="cls-77" x="52.06" y="35.29" width="0.39" height="37.08" transform="matrix(0.87, -0.5, 0.5, 0.87, -19.92, 33.34)"/><rect class="cls-78" x="51.72" y="35.49" width="0.39" height="37.08" transform="translate(-20.06 33.2) rotate(-30)"/><rect class="cls-79" x="51.38" y="35.68" width="0.39" height="37.08" transform="translate(-20.2 33.05) rotate(-30)"/><rect class="cls-80" x="51.04" y="35.88" width="0.39" height="37.08" transform="translate(-20.34 32.91) rotate(-30)"/><rect class="cls-81" x="50.7" y="36.07" width="0.39" height="37.08" transform="translate(-20.49 32.77) rotate(-30)"/><rect class="cls-82" x="50.37" y="36.27" width="0.39" height="37.08" transform="matrix(0.87, -0.5, 0.5, 0.87, -20.63, 32.62)"/><rect class="cls-83" x="50.03" y="36.47" width="0.39" height="37.08" transform="translate(-20.77 32.48) rotate(-30)"/><rect class="cls-84" x="49.69" y="36.66" width="0.39" height="37.08" transform="matrix(0.87, -0.5, 0.5, 0.87, -20.92, 32.34)"/><rect class="cls-85" x="49.35" y="36.86" width="0.39" height="37.08" transform="translate(-21.06 32.19) rotate(-30)"/><rect class="cls-86" x="49.01" y="37.05" width="0.39" height="37.08" transform="matrix(0.87, -0.5, 0.5, 0.87, -21.2, 32.05)"/><rect class="cls-87" x="48.67" y="37.25" width="0.39" height="37.08" transform="translate(-21.35 31.91) rotate(-30)"/><rect class="cls-88" x="48.33" y="37.44" width="0.39" height="37.08" transform="matrix(0.87, -0.5, 0.5, 0.87, -21.49, 31.76)"/><rect class="cls-89" x="47.99" y="37.64" width="0.39" height="37.08" transform="translate(-21.63 31.62) rotate(-30)"/><rect class="cls-90" x="47.65" y="37.84" width="0.39" height="37.08" transform="translate(-21.78 31.48) rotate(-30)"/><rect class="cls-91" x="47.32" y="38.03" width="0.39" height="37.08" transform="translate(-21.92 31.33) rotate(-30)"/><rect class="cls-92" x="46.98" y="38.23" width="0.39" height="37.08" transform="matrix(0.87, -0.5, 0.5, 0.87, -22.06, 31.19)"/><rect class="cls-93" x="46.64" y="38.42" width="0.39" height="37.08" transform="translate(-22.21 31.05) rotate(-30)"/><rect class="cls-94" x="46.3" y="38.62" width="0.39" height="37.08" transform="matrix(0.87, -0.5, 0.5, 0.87, -22.35, 30.9)"/><rect class="cls-95" x="45.96" y="38.81" width="0.39" height="37.08" transform="translate(-22.49 30.76) rotate(-30)"/><rect class="cls-96" x="45.62" y="39.01" width="0.39" height="37.08" transform="translate(-22.64 30.62) rotate(-30)"/><rect class="cls-97" x="45.28" y="39.21" width="0.39" height="37.08" transform="matrix(0.87, -0.5, 0.5, 0.87, -22.78, 30.48)"/><rect class="cls-98" x="44.94" y="39.4" width="0.39" height="37.08" transform="translate(-22.92 30.33) rotate(-30)"/><rect class="cls-99" x="44.6" y="39.6" width="0.39" height="37.08" transform="translate(-23.07 30.19) rotate(-30)"/><rect class="cls-100" x="44.27" y="39.79" width="0.39" height="37.08" transform="translate(-23.21 30.05) rotate(-30)"/><rect class="cls-101" x="43.93" y="39.99" width="0.39" height="37.08" transform="matrix(0.87, -0.5, 0.5, 0.87, -23.35, 29.9)"/><rect class="cls-102" x="43.59" y="40.18" width="0.39" height="37.08" transform="translate(-23.5 29.76) rotate(-30)"/><rect class="cls-103" x="43.25" y="40.38" width="0.39" height="37.08" transform="matrix(0.87, -0.5, 0.5, 0.87, -23.64, 29.62)"/><rect class="cls-104" x="42.91" y="40.57" width="0.39" height="37.08" transform="translate(-23.78 29.47) rotate(-30)"/><rect class="cls-105" x="42.57" y="40.77" width="0.39" height="37.08" transform="matrix(0.87, -0.5, 0.5, 0.87, -23.93, 29.33)"/><rect class="cls-106" x="42.23" y="40.97" width="0.39" height="37.08" transform="translate(-24.07 29.19) rotate(-30)"/><rect class="cls-107" x="41.89" y="41.16" width="0.39" height="37.08" transform="matrix(0.87, -0.5, 0.5, 0.87, -24.21, 29.04)"/><rect class="cls-108" x="41.55" y="41.36" width="0.39" height="37.08" transform="translate(-24.36 28.9) rotate(-30)"/><rect class="cls-109" x="41.22" y="41.55" width="0.39" height="37.08" transform="translate(-24.5 28.76) rotate(-30)"/><rect class="cls-110" x="40.88" y="41.75" width="0.39" height="37.08" transform="translate(-24.64 28.61) rotate(-30)"/><rect class="cls-111" x="40.54" y="41.94" width="0.39" height="37.08" transform="matrix(0.87, -0.5, 0.5, 0.87, -24.78, 28.47)"/><rect class="cls-112" x="40.2" y="42.14" width="0.39" height="37.08" transform="translate(-24.93 28.33) rotate(-30)"/><rect class="cls-113" x="39.86" y="42.34" width="0.39" height="37.08" transform="translate(-25.07 28.18) rotate(-30)"/><rect class="cls-114" x="39.52" y="42.53" width="0.39" height="37.08" transform="matrix(0.87, -0.5, 0.5, 0.87, -25.21, 28.04)"/><rect class="cls-115" x="39.18" y="42.73" width="0.39" height="37.08" transform="translate(-25.36 27.9) rotate(-30)"/><rect class="cls-116" x="38.84" y="42.92" width="0.39" height="37.08" transform="matrix(0.87, -0.5, 0.5, 0.87, -25.5, 27.75)"/><rect class="cls-117" x="38.5" y="43.12" width="0.39" height="37.08" transform="translate(-25.64 27.61) rotate(-30)"/><rect class="cls-118" x="38.17" y="43.31" width="0.39" height="37.08" transform="translate(-25.79 27.47) rotate(-30)"/><rect class="cls-119" x="37.83" y="43.51" width="0.39" height="37.08" transform="translate(-25.93 27.32) rotate(-30)"/><rect class="cls-120" x="37.49" y="43.7" width="0.39" height="37.08" transform="matrix(0.87, -0.5, 0.5, 0.87, -26.07, 27.18)"/><rect class="cls-121" x="37.15" y="43.9" width="0.39" height="37.08" transform="translate(-26.22 27.04) rotate(-30)"/><rect class="cls-122" x="36.81" y="44.1" width="0.39" height="37.08" transform="matrix(0.87, -0.5, 0.5, 0.87, -26.36, 26.89)"/><rect class="cls-123" x="36.47" y="44.29" width="0.39" height="37.08" transform="translate(-26.5 26.75) rotate(-30)"/><rect class="cls-124" x="36.13" y="44.49" width="0.39" height="37.08" transform="matrix(0.87, -0.5, 0.5, 0.87, -26.65, 26.61)"/><rect class="cls-125" x="35.79" y="44.68" width="0.39" height="37.08" transform="translate(-26.79 26.47) rotate(-30)"/><rect class="cls-126" x="35.45" y="44.88" width="0.39" height="37.08" transform="matrix(0.87, -0.5, 0.5, 0.87, -26.93, 26.32)"/><rect class="cls-127" x="35.12" y="45.07" width="0.39" height="37.08" transform="translate(-27.08 26.18) rotate(-30)"/><rect class="cls-128" x="34.78" y="45.27" width="0.39" height="37.08" transform="translate(-27.22 26.04) rotate(-30)"/><rect class="cls-129" x="34.44" y="45.47" width="0.39" height="37.08" transform="matrix(0.87, -0.5, 0.5, 0.87, -27.36, 25.89)"/><rect class="cls-130" x="34.1" y="45.66" width="0.39" height="37.08" transform="translate(-27.51 25.75) rotate(-30)"/><rect class="cls-131" x="33.76" y="45.86" width="0.39" height="37.08" transform="matrix(0.87, -0.5, 0.5, 0.87, -27.65, 25.61)"/><rect class="cls-132" x="33.42" y="46.05" width="0.39" height="37.08" transform="translate(-27.79 25.46) rotate(-30)"/><rect class="cls-133" x="33.08" y="46.25" width="0.39" height="37.08" transform="matrix(0.87, -0.5, 0.5, 0.87, -27.94, 25.32)"/><rect class="cls-134" x="32.74" y="46.44" width="0.39" height="37.08" transform="translate(-28.08 25.18) rotate(-30)"/><rect class="cls-135" x="32.41" y="46.64" width="0.39" height="37.08" transform="matrix(0.87, -0.5, 0.5, 0.87, -28.22, 25.03)"/><rect class="cls-136" x="32.07" y="46.84" width="0.39" height="37.08" transform="translate(-28.37 24.89) rotate(-30)"/><rect class="cls-137" x="31.73" y="47.03" width="0.39" height="37.08" transform="translate(-28.51 24.75) rotate(-30)"/><rect class="cls-138" x="31.39" y="47.23" width="0.39" height="37.08" transform="translate(-28.65 24.6) rotate(-30)"/><rect class="cls-139" x="31.05" y="47.42" width="0.39" height="37.08" transform="matrix(0.87, -0.5, 0.5, 0.87, -28.8, 24.46)"/><rect class="cls-140" x="30.71" y="47.62" width="0.39" height="37.08" transform="translate(-28.94 24.32) rotate(-30)"/><rect class="cls-141" x="30.37" y="47.81" width="0.39" height="37.08" transform="matrix(0.87, -0.5, 0.5, 0.87, -29.08, 24.17)"/><rect class="cls-142" x="30.03" y="48.01" width="0.39" height="37.08" transform="translate(-29.22 24.03) rotate(-30)"/><rect class="cls-143" x="29.69" y="48.2" width="0.39" height="37.08" transform="matrix(0.87, -0.5, 0.5, 0.87, -29.37, 23.89)"/><rect class="cls-144" x="29.36" y="48.4" width="0.39" height="37.08" transform="translate(-29.51 23.74) rotate(-30)"/><rect class="cls-145" x="29.02" y="48.6" width="0.39" height="37.08" transform="translate(-29.65 23.6) rotate(-30)"/><rect class="cls-146" x="28.68" y="48.79" width="0.39" height="37.08" transform="translate(-29.8 23.46) rotate(-30)"/><rect class="cls-147" x="28.34" y="48.99" width="0.39" height="37.08" transform="translate(-29.94 23.31) rotate(-30)"/><rect class="cls-148" x="28" y="49.18" width="0.39" height="37.08" transform="matrix(0.87, -0.5, 0.5, 0.87, -30.08, 23.17)"/><rect class="cls-149" x="27.66" y="49.38" width="0.39" height="37.08" transform="translate(-30.23 23.03) rotate(-30)"/><rect class="cls-150" x="27.32" y="49.57" width="0.39" height="37.08" transform="matrix(0.87, -0.5, 0.5, 0.87, -30.37, 22.88)"/><rect class="cls-151" x="26.98" y="49.77" width="0.39" height="37.08" transform="translate(-30.51 22.74) rotate(-30)"/><rect class="cls-152" x="26.64" y="49.97" width="0.39" height="37.08" transform="matrix(0.87, -0.5, 0.5, 0.87, -30.66, 22.6)"/><rect class="cls-153" x="26.31" y="50.16" width="0.39" height="37.08" transform="translate(-30.8 22.45) rotate(-30)"/><rect class="cls-154" x="25.97" y="50.36" width="0.39" height="37.08" transform="matrix(0.87, -0.5, 0.5, 0.87, -30.94, 22.31)"/><rect class="cls-155" x="25.63" y="50.55" width="0.39" height="37.08" transform="translate(-31.09 22.17) rotate(-30)"/><rect class="cls-156" x="25.29" y="50.75" width="0.39" height="37.08" transform="translate(-31.23 22.03) rotate(-30)"/><rect class="cls-157" x="24.95" y="50.94" width="0.39" height="37.08" transform="translate(-31.37 21.88) rotate(-30)"/><rect class="cls-158" x="24.61" y="51.14" width="0.39" height="37.08" transform="matrix(0.87, -0.5, 0.5, 0.87, -31.52, 21.74)"/><rect class="cls-159" x="24.27" y="51.34" width="0.39" height="37.08" transform="translate(-31.66 21.6) rotate(-30)"/><rect class="cls-160" x="23.93" y="51.53" width="0.39" height="37.08" transform="translate(-31.8 21.45) rotate(-30)"/><rect class="cls-161" x="23.59" y="51.73" width="0.39" height="37.08" transform="matrix(0.87, -0.5, 0.5, 0.87, -31.95, 21.31)"/><rect class="cls-162" x="23.26" y="51.92" width="0.39" height="37.08" transform="translate(-32.09 21.17) rotate(-30)"/><rect class="cls-163" x="22.92" y="52.12" width="0.39" height="37.08" transform="matrix(0.87, -0.5, 0.5, 0.87, -32.23, 21.02)"/><rect class="cls-164" x="22.58" y="52.31" width="0.39" height="37.08" transform="translate(-32.38 20.88) rotate(-30)"/><rect class="cls-165" x="22.24" y="52.51" width="0.39" height="37.08" transform="translate(-32.52 20.74) rotate(-30)"/><rect class="cls-166" x="21.9" y="52.7" width="0.39" height="37.08" transform="translate(-32.66 20.59) rotate(-30)"/><rect class="cls-167" x="21.56" y="52.9" width="0.39" height="37.08" transform="matrix(0.87, -0.5, 0.5, 0.87, -32.81, 20.45)"/><rect class="cls-168" x="21.22" y="53.1" width="0.39" height="37.08" transform="translate(-32.95 20.31) rotate(-30)"/><rect class="cls-169" x="20.88" y="53.29" width="0.39" height="37.08" transform="matrix(0.87, -0.5, 0.5, 0.87, -33.09, 20.16)"/><rect class="cls-170" x="20.54" y="53.49" width="0.39" height="37.08" transform="translate(-33.23 20.02) rotate(-30)"/><rect class="cls-171" x="20.21" y="53.68" width="0.39" height="37.08" transform="matrix(0.87, -0.5, 0.5, 0.87, -33.38, 19.88)"/><rect class="cls-172" x="19.87" y="53.88" width="0.39" height="37.08" transform="translate(-33.52 19.73) rotate(-30)"/><rect class="cls-173" x="19.53" y="54.07" width="0.39" height="37.08" transform="matrix(0.87, -0.5, 0.5, 0.87, -33.66, 19.59)"/><rect class="cls-174" x="19.19" y="54.27" width="0.39" height="37.08" transform="translate(-33.81 19.45) rotate(-30)"/><rect class="cls-175" x="18.85" y="54.47" width="0.39" height="37.08" transform="translate(-33.95 19.3) rotate(-30)"/><polygon class="cls-176" points="28.15 89.16 27.81 89.36 9.36 57.41 9.36 57.19 9.61 57.05 28.15 89.16"/><polygon class="cls-177" points="27.81 89.36 27.47 89.55 9.36 58.19 9.36 57.41 27.81 89.36"/><polygon class="cls-178" points="27.47 89.55 27.13 89.75 9.36 58.97 9.36 58.19 27.47 89.55"/><polygon class="cls-179" points="27.13 89.75 26.79 89.94 9.36 59.76 9.36 58.97 27.13 89.75"/><polygon class="cls-180" points="26.79 89.94 26.45 90.14 9.36 60.54 9.36 59.76 26.79 89.94"/><polygon class="cls-181" points="26.45 90.14 26.35 90.2 26.04 90.2 9.36 61.32 9.36 60.54 26.45 90.14"/><polygon class="cls-182" points="25.58 90.2 9.36 62.1 9.36 61.32 26.04 90.2 25.58 90.2"/><polygon class="cls-183" points="25.13 90.2 9.36 62.88 9.36 62.1 25.58 90.2 25.13 90.2"/><polygon class="cls-184" points="24.68 90.2 9.36 63.67 9.36 62.88 25.13 90.2 24.68 90.2"/><polygon class="cls-185" points="24.23 90.2 9.36 64.45 9.36 63.67 24.68 90.2 24.23 90.2"/><polygon class="cls-186" points="23.78 90.2 9.36 65.23 9.36 64.45 24.23 90.2 23.78 90.2"/><polygon class="cls-187" points="23.32 90.2 9.36 66.02 9.36 65.23 23.78 90.2 23.32 90.2"/><polygon class="cls-188" points="22.87 90.2 9.36 66.8 9.36 66.02 23.32 90.2 22.87 90.2"/><polygon class="cls-189" points="22.42 90.2 9.36 67.58 9.36 66.8 22.87 90.2 22.42 90.2"/><polygon class="cls-190" points="21.97 90.2 9.36 68.36 9.36 67.58 22.42 90.2 21.97 90.2"/><polygon class="cls-191" points="21.52 90.2 9.36 69.15 9.36 68.36 21.97 90.2 21.52 90.2"/><polygon class="cls-192" points="21.07 90.2 9.36 69.93 9.36 69.15 21.52 90.2 21.07 90.2"/><polygon class="cls-193" points="20.61 90.2 9.36 70.71 9.36 69.93 21.07 90.2 20.61 90.2"/><polygon class="cls-194" points="20.16 90.2 9.36 71.49 9.36 70.71 20.61 90.2 20.16 90.2"/><polygon class="cls-195" points="19.71 90.2 9.36 72.28 9.36 71.49 20.16 90.2 19.71 90.2"/><polygon class="cls-196" points="19.26 90.2 9.36 73.06 9.36 72.28 19.71 90.2 19.26 90.2"/><polygon class="cls-197" points="18.81 90.2 9.36 73.84 9.36 73.06 19.26 90.2 18.81 90.2"/><polygon class="cls-198" points="18.35 90.2 9.36 74.62 9.36 73.84 18.81 90.2 18.35 90.2"/><polygon class="cls-199" points="17.9 90.2 9.36 75.41 9.36 74.62 18.35 90.2 17.9 90.2"/><polygon class="cls-200" points="17.45 90.2 9.36 76.19 9.36 75.41 17.9 90.2 17.45 90.2"/><polygon class="cls-200" points="9.36 76.19 17.45 90.2 9.36 90.2 9.36 76.19"/></g><path class="cls-4" d="M39.56,46s-8.13,9.29,0,27.88c2.33,4.64,45.3,52.27,45.3,52.27H54.66L9.36,76.19Z"/></g></g></svg>