<?xml version="1.0" encoding="iso-8859-1"?>
<!-- Generator: Adobe Illustrator 19.0.0, SVG Export Plug-In . SVG Version: 6.00 Build 0)  -->
<svg version="1.1" id="Layer_1" xmlns="http://www.w3.org/2000/svg" xmlns:xlink="http://www.w3.org/1999/xlink" x="0px" y="0px"
	 viewBox="0 0 512 512" fill="#ffffff" stroke="#ffffff" style="enable-background:new 0 0 512 512;" xml:space="preserve">
<g>
	<g>
		<path d="M467,0H271c0,31.317,0,46.813,0,77.89c4.863-1.245,9.902-1.89,15-1.89c33.091,0,60,26.909,60,60s-26.909,60-60,60
			c-5.098,0-10.137-0.645-15-1.89V241h71.396c12.892,0,19.796,15.264,11.221,24.961C348.71,271.483,346,278.603,346,286
			c0,16.538,13.462,30,30,30c16.538,0,30-13.462,30-30c0-7.397-2.71-14.517-7.617-20.039c-8.575-9.697-1.672-24.961,11.221-24.961
			c51.478,0,70.086,0,102.396,0V45C512,20.147,491.853,0,467,0z"/>
	</g>
</g>
<g>
	<g>
		<path d="M286,106c-7.397,0-14.517,2.71-20.039,7.617c-9.725,8.626-24.961,1.609-24.961-11.221c0-34.794,0-65.468,0-102.396H45
			C20.147,0,0,20.147,0,45v196c16.388,0,22.465,0,77.89,0c-1.245-4.863-1.89-9.902-1.89-15c0-33.091,26.909-60,60-60
			s60,26.909,60,60c0,5.098-0.645,10.137-1.89,15H241v-71.396c0-12.942,15.304-19.755,24.961-11.221
			C271.483,163.29,278.603,166,286,166c16.538,0,30-13.462,30-30C316,119.462,302.538,106,286,106z"/>
	</g>
</g>
<g>
	<g>
		<path d="M226,316c5.098,0,10.137,0.645,15,1.89V271h-71.396c-12.892,0-19.796-15.264-11.221-24.961
			C163.29,240.517,166,233.397,166,226c0-16.538-13.462-30-30-30c-16.538,0-30,13.462-30,30c0,7.397,2.71,14.517,7.617,20.039
			c8.575,9.697,1.672,24.961-11.221,24.961C55.13,271,30.189,271,0,271v196c0,24.853,20.147,45,45,45h196c0-27.574,0-51.374,0-77.89
			c-4.863,1.245-9.902,1.89-15,1.89c-33.091,0-60-26.909-60-60S192.909,316,226,316z"/>
	</g>
</g>
<g>
	<g>
		<path d="M434.11,271c1.245,4.863,1.89,9.902,1.89,15c0,33.091-26.909,60-60,60s-60-26.909-60-60c0-5.098,0.645-10.137,1.89-15H271
			v71.396c0,12.918-15.282,19.777-24.961,11.221C240.517,348.71,233.397,346,226,346c-16.538,0-30,13.462-30,30
			c0,16.538,13.462,30,30,30c7.397,0,14.517-2.71,20.039-7.617c9.811-8.61,24.961-1.609,24.961,11.221c0,49.688,0,66.235,0,102.396
			h196c24.853,0,45-20.147,45-45V271C480.683,271,465.187,271,434.11,271z"/>
	</g>
</g>
<g>
</g>
<g>
</g>
<g>
</g>
<g>
</g>
<g>
</g>
<g>
</g>
<g>
</g>
<g>
</g>
<g>
</g>
<g>
</g>
<g>
</g>
<g>
</g>
<g>
</g>
<g>
</g>
<g>
</g>
</svg>
