<svg width="16" height="16" viewBox="0 0 16 16" fill="none" xmlns="http://www.w3.org/2000/svg">
<path d="M12.05 1.03516L14.832 3.93516V14.9632H4.43945V14.9992H14.8675V3.97166L12.05 1.03516Z" fill="#909090"/>
<path d="M12.0158 1H4.4043V14.964H14.8323V3.9365L12.0153 1" fill="#F4F4F4"/>
<path d="M4.32781 1.75H1.13281V5.1635H11.1828V1.75H4.32781Z" fill="#7A7B7C"/>
<path d="M11.2358 5.10741H1.19727V1.69141H11.2358V5.10741Z" fill="#DD2025"/>
<path d="M4.52655 2.26562H3.87305V4.66562H4.38705V3.85613L4.50055 3.86263C4.61083 3.86073 4.72008 3.84097 4.82405 3.80413C4.9152 3.77277 4.99905 3.72328 5.07055 3.65863C5.1433 3.59704 5.20065 3.5193 5.23805 3.43163C5.28819 3.28587 5.30611 3.13097 5.29055 2.97763C5.28742 2.86808 5.26822 2.75959 5.23355 2.65563C5.20198 2.58058 5.15514 2.51293 5.096 2.45697C5.03686 2.40102 4.96672 2.35799 4.89005 2.33063C4.82375 2.30662 4.75525 2.28921 4.68555 2.27863C4.63276 2.27048 4.57946 2.26614 4.52605 2.26562H4.52655ZM4.43155 3.41263H4.38705V2.67263H4.48355C4.52614 2.66955 4.56887 2.67609 4.6086 2.69176C4.64832 2.70742 4.68402 2.73181 4.71305 2.76312C4.77321 2.84363 4.80534 2.94163 4.80455 3.04212C4.80455 3.16512 4.80455 3.27662 4.69355 3.35512C4.61358 3.39911 4.52256 3.41891 4.43155 3.41213" fill="#464648"/>
<path d="M6.26587 2.25888C6.21037 2.25888 6.15637 2.26288 6.11837 2.26438L5.99937 2.26738H5.60938V4.66738H6.06837C6.24379 4.67219 6.41843 4.64246 6.58238 4.57988C6.71433 4.52754 6.83118 4.44317 6.92237 4.33438C7.01106 4.22461 7.0747 4.0968 7.10887 3.95988C7.14816 3.80482 7.16731 3.64534 7.16587 3.48538C7.17557 3.29646 7.16095 3.10708 7.12238 2.92188C7.08577 2.78556 7.01721 2.65993 6.92237 2.55538C6.84797 2.47096 6.75689 2.40287 6.65487 2.35538C6.56726 2.31484 6.47511 2.28496 6.38037 2.26638C6.3427 2.26016 6.30455 2.25732 6.26638 2.25788L6.26587 2.25888ZM6.17537 4.22638H6.12537V2.69438H6.13188C6.23495 2.68252 6.33925 2.70112 6.43187 2.74788C6.49971 2.80205 6.55498 2.87028 6.59387 2.94788C6.63585 3.02955 6.66005 3.11919 6.66488 3.21088C6.66938 3.32088 6.66488 3.41088 6.66488 3.48538C6.66691 3.5712 6.66139 3.65703 6.64838 3.74188C6.63296 3.829 6.60448 3.91328 6.56387 3.99188C6.51792 4.06496 6.45583 4.12654 6.38237 4.17188C6.32069 4.21178 6.24764 4.2304 6.17438 4.22488" fill="#464648"/>
<path d="M8.715 2.26953H7.5V4.66953H8.014V3.71753H8.664V3.27153H8.014V2.71553H8.714V2.26953" fill="#464648"/>
<path d="M10.8903 10.1268C10.8903 10.1268 12.4843 9.83777 12.4843 10.3823C12.4843 10.9268 11.4968 10.7053 10.8903 10.1268ZM9.71185 10.1683C9.45859 10.2242 9.21179 10.3062 8.97535 10.4128L9.17535 9.96277C9.37535 9.51277 9.58285 8.89927 9.58285 8.89927C9.8215 9.30094 10.0992 9.6781 10.4118 10.0253C10.1761 10.0604 9.94237 10.1085 9.71185 10.1693V10.1683ZM9.08085 6.91827C9.08085 6.44377 9.23435 6.31427 9.35385 6.31427C9.47335 6.31427 9.60785 6.37177 9.61235 6.78377C9.57341 7.19805 9.48667 7.60644 9.35385 8.00077C9.17191 7.66969 9.07775 7.29754 9.08035 6.91977L9.08085 6.91827ZM6.75635 12.1763C6.26735 11.8838 7.78185 10.9833 8.05635 10.9543C8.05485 10.9548 7.26835 12.4823 6.75635 12.1763V12.1763ZM12.9498 10.4468C12.9448 10.3968 12.8998 9.84327 11.9148 9.86677C11.5043 9.86016 11.0939 9.8891 10.6883 9.95327C10.2955 9.55747 9.95716 9.11104 9.68235 8.62577C9.85548 8.12548 9.96026 7.60411 9.99385 7.07577C9.97935 6.47577 9.83585 6.13177 9.37585 6.13677C8.91585 6.14177 8.84885 6.54427 8.90935 7.14327C8.96861 7.5458 9.0804 7.93881 9.24185 8.31227C9.24185 8.31227 9.02935 8.97377 8.74835 9.63177C8.46735 10.2898 8.27535 10.6348 8.27535 10.6348C7.78671 10.7938 7.32671 11.0302 6.91285 11.3348C6.50085 11.7183 6.33335 12.0128 6.55035 12.3073C6.73735 12.5613 7.39185 12.6188 7.97685 11.8523C8.28767 11.4564 8.57164 11.0401 8.82685 10.6063C8.82685 10.6063 9.71885 10.3618 9.99635 10.2948C10.2738 10.2278 10.6093 10.1748 10.6093 10.1748C10.6093 10.1748 11.4238 10.9943 12.2093 10.9653C12.9948 10.9363 12.9568 10.4958 12.9518 10.4478" fill="#DD2025"/>
<path d="M11.9766 1.03906V3.97556H14.7931L11.9766 1.03906Z" fill="#909090"/>
<path d="M12.0156 1V3.9365H14.8321L12.0156 1Z" fill="#F4F4F4"/>
<path d="M4.48748 2.22656H3.83398V4.62656H4.34998V3.81756L4.46398 3.82406C4.57427 3.82216 4.68352 3.80241 4.78748 3.76556C4.87863 3.7342 4.96248 3.6847 5.03398 3.62006C5.10619 3.55831 5.16302 3.48059 5.19998 3.39306C5.25013 3.24731 5.26804 3.09241 5.25248 2.93906C5.24936 2.82952 5.23016 2.72102 5.19548 2.61706C5.16392 2.54202 5.11708 2.47436 5.05794 2.41841C4.9988 2.36246 4.92866 2.31943 4.85198 2.29206C4.78538 2.26783 4.71655 2.25024 4.64648 2.23956C4.5937 2.23142 4.54039 2.22707 4.48698 2.22656H4.48748ZM4.39248 3.37356H4.34798V2.63356H4.44498C4.48757 2.63049 4.53031 2.63703 4.57003 2.65269C4.60976 2.66836 4.64545 2.69275 4.67448 2.72406C4.73464 2.80457 4.76678 2.90256 4.76598 3.00306C4.76598 3.12606 4.76598 3.23756 4.65498 3.31606C4.57502 3.36004 4.484 3.37985 4.39298 3.37306" fill="white"/>
<path d="M6.22727 2.22373C6.17177 2.22373 6.11777 2.22773 6.07977 2.22923L5.96227 2.23223H5.57227V4.63223H6.03127C6.20668 4.63704 6.38132 4.6073 6.54527 4.54473C6.67722 4.49239 6.79407 4.40802 6.88527 4.29923C6.97395 4.18945 7.0376 4.06165 7.07177 3.92473C7.11105 3.76966 7.1302 3.61018 7.12877 3.45023C7.13846 3.26131 7.12384 3.07192 7.08527 2.88673C7.04866 2.75041 6.9801 2.62477 6.88527 2.52023C6.81086 2.43581 6.71978 2.36771 6.61777 2.32023C6.53016 2.27969 6.438 2.24981 6.34327 2.23123C6.30559 2.225 6.26744 2.22216 6.22927 2.22273L6.22727 2.22373ZM6.13827 4.19123H6.08827V2.65923H6.09477C6.19784 2.64737 6.30214 2.66597 6.39477 2.71273C6.4626 2.76689 6.51787 2.83513 6.55677 2.91273C6.59874 2.99439 6.62294 3.08403 6.62777 3.17573C6.63227 3.28573 6.62777 3.37573 6.62777 3.45023C6.6298 3.53605 6.62428 3.62188 6.61127 3.70673C6.59585 3.79384 6.56737 3.87813 6.52677 3.95673C6.48081 4.0298 6.41872 4.09138 6.34527 4.13673C6.28358 4.17663 6.21053 4.19524 6.13727 4.18973" fill="white"/>
<path d="M8.67594 2.23047H7.46094V4.63047H7.97494V3.67847H8.62494V3.23247H7.97494V2.67647H8.67494V2.23047" fill="white"/>
</svg>
