<?xml version="1.0" standalone="no"?>
<svg version="1.0" xmlns="http://www.w3.org/2000/svg"
 width="299.000000pt" height="198.000000pt" viewBox="0 0 299.000000 198.000000"
 preserveAspectRatio="xMidYMid meet">
<metadata>
Created by potrace 1.16, written by Peter Selinger 2001-2019
</metadata>
<g transform="translate(0.000000,198.000000) scale(0.100000,-0.100000)"
fill="#000000" stroke="none">
<path d="M1325 1545 l-130 -43 0 -196 0 -197 137 -45 137 -45 138 44 138 45 0
198 0 198 -135 43 c-74 23 -139 42 -145 42 -5 -1 -68 -20 -140 -44z m245 -31
c45 -14 80 -27 77 -30 -2 -2 -43 -17 -90 -33 l-87 -30 -90 31 c-50 16 -89 32
-87 35 8 8 152 51 174 52 12 1 59 -11 103 -25z m-225 -97 l100 -34 3 -157 c1
-87 -1 -155 -5 -153 -5 3 -54 19 -110 36 l-103 32 0 154 c0 85 4 155 8 155 4
0 53 -15 107 -33z m365 -122 l0 -154 -102 -32 c-57 -17 -106 -33 -111 -36 -4
-2 -6 66 -5 153 l3 157 95 33 c52 18 101 33 108 33 9 1 12 -36 12 -154z"/>
<path d="M865 1408 c-11 -51 -65 -400 -65 -426 0 -60 32 -119 125 -232 78 -95
95 -121 95 -149 0 -19 -7 -42 -15 -51 -13 -15 -11 -25 25 -98 21 -45 44 -82
49 -82 5 0 82 35 171 77 184 88 176 75 117 188 -26 47 -37 60 -54 58 -18 -2
-22 4 -28 40 -10 59 -38 110 -87 157 -25 24 -63 80 -93 138 -43 83 -56 100
-90 117 l-40 20 3 98 3 98 -35 35 c-40 40 -73 45 -81 12z m67 -156 c-3 -71 -7
-99 -18 -105 -22 -12 -18 -27 37 -141 38 -78 57 -106 70 -106 11 0 19 4 19 9
0 5 -20 53 -44 105 -39 84 -43 96 -26 96 38 0 52 -15 100 -109 29 -58 65 -112
90 -136 54 -52 80 -103 80 -158 l0 -45 -82 -39 -83 -40 -9 38 c-6 25 -38 73
-98 145 -49 59 -97 121 -105 138 -23 44 -21 98 12 299 26 161 30 176 44 162
12 -12 15 -35 13 -113z m406 -657 l22 -46 -132 -64 -133 -65 -25 52 c-19 39
-22 52 -12 56 7 2 61 28 120 57 59 30 114 54 123 54 8 1 24 -18 37 -44z"/>
<path d="M2013 1418 c-40 -20 -55 -65 -51 -163 l3 -90 -40 -20 c-34 -17 -47
-34 -90 -117 -30 -58 -68 -114 -93 -138 -49 -47 -77 -98 -87 -157 -6 -36 -10
-42 -28 -40 -17 2 -28 -11 -54 -58 -59 -113 -67 -100 119 -188 90 -43 166 -77
170 -77 11 0 78 137 78 159 0 11 -4 23 -10 26 -5 3 -10 23 -10 43 0 32 14 53
95 152 93 113 125 172 125 232 0 26 -54 375 -65 426 -6 24 -26 27 -62 10z m57
-245 c17 -109 28 -205 24 -220 -12 -48 -30 -76 -123 -187 -67 -81 -91 -118
-96 -147 l-7 -38 -84 42 -84 41 0 44 c0 54 26 106 80 157 25 24 61 78 90 136
48 94 62 109 100 109 17 0 13 -12 -26 -96 -24 -52 -44 -100 -44 -105 0 -5 8
-9 19 -9 13 0 32 28 70 106 55 114 59 129 37 141 -21 12 -26 194 -6 218 18 21
13 37 50 -192z m-311 -587 c60 -30 116 -56 123 -58 10 -4 7 -17 -12 -56 l-25
-50 -133 63 -132 64 22 45 c12 25 28 46 34 46 7 0 62 -24 123 -54z"/>
</g>
</svg>
