<svg width="22" height="22" viewBox="0 0 22 22" fill="none" xmlns="http://www.w3.org/2000/svg">
<path d="M9.16671 11.9166H2.75004C2.50693 11.9166 2.27377 12.0132 2.10186 12.1851C1.92995 12.357 1.83337 12.5901 1.83337 12.8333V19.2499C1.83337 19.493 1.92995 19.7262 2.10186 19.8981C2.27377 20.07 2.50693 20.1666 2.75004 20.1666H9.16671C9.40982 20.1666 9.64298 20.07 9.81489 19.8981C9.9868 19.7262 10.0834 19.493 10.0834 19.2499V12.8333C10.0834 12.5901 9.9868 12.357 9.81489 12.1851C9.64298 12.0132 9.40982 11.9166 9.16671 11.9166ZM8.25004 18.3333H3.66671V13.7499H8.25004V18.3333ZM19.25 1.83325H12.8334C12.5903 1.83325 12.3571 1.92983 12.1852 2.10174C12.0133 2.27365 11.9167 2.5068 11.9167 2.74992V9.16659C11.9167 9.4097 12.0133 9.64286 12.1852 9.81477C12.3571 9.98668 12.5903 10.0833 12.8334 10.0833H19.25C19.4932 10.0833 19.7263 9.98668 19.8982 9.81477C20.0701 9.64286 20.1667 9.4097 20.1667 9.16659V2.74992C20.1667 2.5068 20.0701 2.27365 19.8982 2.10174C19.7263 1.92983 19.4932 1.83325 19.25 1.83325ZM18.3334 8.24992H13.75V3.66659H18.3334V8.24992ZM19.25 11.9166H12.8334C12.5903 11.9166 12.3571 12.0132 12.1852 12.1851C12.0133 12.357 11.9167 12.5901 11.9167 12.8333V19.2499C11.9167 19.493 12.0133 19.7262 12.1852 19.8981C12.3571 20.07 12.5903 20.1666 12.8334 20.1666H19.25C19.4932 20.1666 19.7263 20.07 19.8982 19.8981C20.0701 19.7262 20.1667 19.493 20.1667 19.2499V12.8333C20.1667 12.5901 20.0701 12.357 19.8982 12.1851C19.7263 12.0132 19.4932 11.9166 19.25 11.9166ZM18.3334 18.3333H13.75V13.7499H18.3334V18.3333ZM9.16671 1.83325H2.75004C2.50693 1.83325 2.27377 1.92983 2.10186 2.10174C1.92995 2.27365 1.83337 2.5068 1.83337 2.74992V9.16659C1.83337 9.4097 1.92995 9.64286 2.10186 9.81477C2.27377 9.98668 2.50693 10.0833 2.75004 10.0833H9.16671C9.40982 10.0833 9.64298 9.98668 9.81489 9.81477C9.9868 9.64286 10.0834 9.4097 10.0834 9.16659V2.74992C10.0834 2.5068 9.9868 2.27365 9.81489 2.10174C9.64298 1.92983 9.40982 1.83325 9.16671 1.83325ZM8.25004 8.24992H3.66671V3.66659H8.25004V8.24992Z" fill="#1518AF"/>
</svg>
