<svg xmlns="http://www.w3.org/2000/svg" width="20.814" height="19.149" viewBox="0 0 20.814 19.149"><defs><style>.a{fill:#465ccd;}</style></defs><g transform="translate(0 1.332)"><path class="a" d="M17.952-1.332H2.862A2.865,2.865,0,0,0,0,1.529v9.235a2.865,2.865,0,0,0,2.851,2.862v4.191l6.023-4.191h9.078a2.865,2.865,0,0,0,2.862-2.862V1.529A2.865,2.865,0,0,0,17.952-1.332Zm1.642,12.1a1.644,1.644,0,0,1-1.642,1.642H8.491L4.071,15.483V12.407H2.862A1.644,1.644,0,0,1,1.22,10.765V1.529A1.644,1.644,0,0,1,2.862-.112H17.952a1.644,1.644,0,0,1,1.642,1.642Zm0,0" transform="translate(0 0)"/><path class="a" d="M171.293,131.172h9.672v1.22h-9.672Zm0,0" transform="translate(-165.722 -128.195)"/><path class="a" d="M171.293,211.172h9.672v1.22h-9.672Zm0,0" transform="translate(-165.722 -205.593)"/><path class="a" d="M171.293,291.172h9.672v1.22h-9.672Zm0,0" transform="translate(-165.722 -282.991)"/></g></svg>