<svg xmlns="http://www.w3.org/2000/svg" xmlns:xlink="http://www.w3.org/1999/xlink" width="22" height="22" viewBox="0 0 22 22"><defs><style>.a{clip-path:url(#a);}</style><clipPath id="a"><path d="M0,0H22V22H0Z"/></clipPath></defs><g class="a"><path d="M19.333,4.958A10.821,10.821,0,0,0,16.125,4.5a8.525,8.525,0,0,0-5.042,1.375A8.525,8.525,0,0,0,6.042,4.5,8.525,8.525,0,0,0,1,5.875V19.3a.493.493,0,0,0,.458.458c.092,0,.137-.046.229-.046a11.188,11.188,0,0,1,4.354-1.008,8.525,8.525,0,0,1,5.042,1.375,11.041,11.041,0,0,1,5.042-1.375,9.33,9.33,0,0,1,4.354.962.413.413,0,0,0,.229.046.493.493,0,0,0,.458-.458V5.875A6.252,6.252,0,0,0,19.333,4.958Zm0,12.375a10.652,10.652,0,0,0-3.208-.458,11.041,11.041,0,0,0-5.042,1.375V7.708a11.041,11.041,0,0,1,5.042-1.375,10.652,10.652,0,0,1,3.208.458Z" transform="translate(-0.083 -0.375)"/></g></svg>