<svg xmlns="http://www.w3.org/2000/svg" width="19.478" height="23.373" viewBox="0 0 19.478 23.373"><g transform="translate(-4.074)"><g transform="translate(4.074)"><path d="M99.643,3.339A12.6,12.6,0,0,1,92.13.835L91.24.167a.835.835,0,0,0-1,0l-.89.668a12.6,12.6,0,0,1-7.513,2.5A.835.835,0,0,0,81,4.174v4.75A15.7,15.7,0,0,0,90.4,23.3a.834.834,0,0,0,.669,0,15.7,15.7,0,0,0,9.4-14.379V4.174a.835.835,0,0,0-.835-.835ZM96.33,10.882l-2.19,2.135.517,3.014a.835.835,0,0,1-1.211.88l-2.707-1.423-2.707,1.423a.835.835,0,0,1-1.211-.88l.517-3.014-2.19-2.135a.835.835,0,0,1,.463-1.424l3.027-.44L89.99,6.276a.835.835,0,0,1,1.5,0l1.353,2.742,3.027.44a.835.835,0,0,1,.463,1.424Z" transform="translate(-81)"/><path d="M202.248,154.917l-.8-1.619-.8,1.619a.835.835,0,0,1-.629.457l-1.787.26,1.293,1.26a.835.835,0,0,1,.24.739l-.305,1.78,1.6-.84a.835.835,0,0,1,.777,0l1.6.84-.305-1.78a.835.835,0,0,1,.24-.739l1.293-1.26-1.787-.26A.835.835,0,0,1,202.248,154.917Z" transform="translate(-191.71 -144.767)"/></g></g></svg>