<svg xmlns="http://www.w3.org/2000/svg" width="24.587" height="16" viewBox="0 0 24.587 16"><defs><style>.a{fill:#a4a4a4;}</style></defs><g transform="translate(0)"><g transform="translate(0 0)"><path class="a" d="M24.431,100.347c-.22-.307-5.453-7.512-12.137-7.512S.375,100.04.156,100.346a.842.842,0,0,0,0,.977c.219.307,5.453,7.512,12.137,7.512s11.918-7.205,12.137-7.511A.841.841,0,0,0,24.431,100.347ZM12.293,107.18c-4.924,0-9.188-4.782-10.45-6.345C3.1,99.27,7.359,94.49,12.293,94.49s9.187,4.781,10.45,6.345C21.483,102.4,17.228,107.18,12.293,107.18Z" transform="translate(0 -92.835)"/></g></g><g transform="translate(7.43 3.137)"><g transform="translate(0 0)"><path class="a" d="M159.585,154.725a4.863,4.863,0,1,0,4.863,4.863A4.869,4.869,0,0,0,159.585,154.725Zm0,8.106a3.242,3.242,0,1,1,3.242-3.242A3.246,3.246,0,0,1,159.585,162.831Z" transform="translate(-154.722 -154.725)"/></g></g></svg>